<?xml version="1.0" encoding="utf-8"?>
<!-- Generator: Adobe Illustrator 16.0.0, SVG Export Plug-In . SVG Version: 6.00 Build 0)  -->
<!DOCTYPE svg PUBLIC "-//W3C//DTD SVG 1.1//EN" "http://www.w3.org/Graphics/SVG/1.1/DTD/svg11.dtd">
<svg version="1.1" id="Layer_1" xmlns="http://www.w3.org/2000/svg" xmlns:xlink="http://www.w3.org/1999/xlink" x="0px" y="0px"
	 width="1400px" height="1050px" viewBox="0 0 1400 1050" enable-background="new 0 0 1400 1050" xml:space="preserve">
<line fill="none" stroke="#010101" stroke-miterlimit="10" x1="0" y1="1033.065" x2="1396.5" y2="1033.065"/>
<line fill="none" stroke="#010101" stroke-miterlimit="10" x1="1.75" y1="935.109" x2="1398.25" y2="935.109"/>
<line fill="none" stroke="#010101" stroke-miterlimit="10" x1="3.5" y1="796.859" x2="1400" y2="796.859"/>
<line fill="none" stroke="#010101" stroke-miterlimit="10" x1="1.75" y1="685.604" x2="1398.25" y2="685.604"/>
<line fill="none" stroke="#010101" stroke-miterlimit="10" x1="1.75" y1="628.803" x2="1398.25" y2="628.803"/>
<line fill="none" stroke="#010101" stroke-miterlimit="10" x1="1.75" y1="589.662" x2="1398.25" y2="589.662"/>
<line fill="none" stroke="#010101" stroke-miterlimit="10" x1="3.5" y1="545.59" x2="1400" y2="545.59"/>
<line fill="none" stroke="#010101" stroke-miterlimit="10" x1="1.75" y1="525" x2="1398.25" y2="525"/>
<line fill="none" stroke="#010101" stroke-miterlimit="10" x1="1398.25" y1="515.182" x2="1.75" y2="515.182"/>
<line fill="none" stroke="#010101" stroke-miterlimit="10" x1="1398.25" y1="482.849" x2="1.75" y2="482.849"/>
<line fill="none" stroke="#010101" stroke-miterlimit="10" x1="1398.25" y1="450.52" x2="1.75" y2="450.52"/>
<line fill="none" stroke="#010101" stroke-miterlimit="10" x1="1398.25" y1="411.379" x2="1.75" y2="411.379"/>
<line fill="none" stroke="#010101" stroke-miterlimit="10" x1="1398.25" y1="354.579" x2="1.75" y2="354.579"/>
<line fill="none" stroke="#010101" stroke-miterlimit="10" x1="1396.5" y1="243.323" x2="0" y2="243.323"/>
<line fill="none" stroke="#010101" stroke-miterlimit="10" x1="1398.25" y1="105.073" x2="1.75" y2="105.073"/>
<line fill="none" stroke="#010101" stroke-miterlimit="10" x1="1400" y1="7.117" x2="3.5" y2="7.117"/>
</svg>
