<?xml version="1.0" encoding="utf-8"?>
<!-- Generator: Adobe Illustrator 16.0.0, SVG Export Plug-In . SVG Version: 6.00 Build 0)  -->
<!DOCTYPE svg PUBLIC "-//W3C//DTD SVG 1.1//EN" "http://www.w3.org/Graphics/SVG/1.1/DTD/svg11.dtd">
<svg version="1.1" id="Layer_1" xmlns="http://www.w3.org/2000/svg" xmlns:xlink="http://www.w3.org/1999/xlink" x="0px" y="0px"
	 width="1280px" height="720px" viewBox="0 0 1280 720" enable-background="new 0 0 1280 720" xml:space="preserve">
<polyline fill="none" stroke="#000000" stroke-width="7" stroke-miterlimit="10" points="120.107,0.5 -0.25,361 127.75,360.5 
	-0.25,720.5 "/>
<polyline fill="none" stroke="#000000" stroke-width="7" stroke-miterlimit="10" points="248.107,0.5 127.75,361 255.75,360.5 
	127.75,720.5 "/>
<polyline fill="none" stroke="#000000" stroke-width="7" stroke-miterlimit="10" points="376.107,0.5 255.75,361 383.75,360.5 
	255.75,720.5 "/>
<polyline fill="none" stroke="#000000" stroke-width="7" stroke-miterlimit="10" points="504.107,0.5 383.75,361 511.75,360.5 
	383.75,720.5 "/>
<polyline fill="none" stroke="#000000" stroke-width="7" stroke-miterlimit="10" points="632.107,0.5 511.75,361 639.75,360.5 
	511.75,720.5 "/>
<polyline fill="none" stroke="#000000" stroke-width="7" stroke-miterlimit="10" points="760.607,0.5 640.25,361 768.25,360.5 
	640.25,720.5 "/>
<polyline fill="none" stroke="#000000" stroke-width="7" stroke-miterlimit="10" points="888.607,0.5 768.25,361 896.25,360.5 
	768.25,720.5 "/>
<polyline fill="none" stroke="#000000" stroke-width="7" stroke-miterlimit="10" points="1016.607,0.5 896.25,361 1024.25,360.5 
	896.25,720.5 "/>
<polyline fill="none" stroke="#000000" stroke-width="7" stroke-miterlimit="10" points="1144.607,0.5 1024.25,361 1152.25,360.5 
	1024.25,720.5 "/>
<polyline fill="none" stroke="#000000" stroke-width="7" stroke-miterlimit="10" points="1272.607,0.5 1152.25,361 1280.25,360.5 
	1152.25,720.5 "/>
</svg>
