<?xml version="1.0" encoding="utf-8"?>
<!-- Generator: Adobe Illustrator 16.0.0, SVG Export Plug-In . SVG Version: 6.00 Build 0)  -->
<!DOCTYPE svg PUBLIC "-//W3C//DTD SVG 1.1//EN" "http://www.w3.org/Graphics/SVG/1.1/DTD/svg11.dtd">
<svg version="1.1" id="Layer_1" xmlns="http://www.w3.org/2000/svg" xmlns:xlink="http://www.w3.org/1999/xlink" x="0px" y="0px"
	 width="1280px" height="720px" viewBox="0 0 1280 720" enable-background="new 0 0 1280 720" xml:space="preserve">
<polyline fill="none" stroke="#000000" stroke-width="7" stroke-miterlimit="10" points="696.107,0 575.75,360.5 703.75,360 
	575.75,720 "/>
<polyline fill="none" stroke="#000000" stroke-width="7" stroke-miterlimit="10" points="696.107,0 575.75,360.5 703.75,360 
	575.75,720 "/>
<polyline fill="none" stroke="#000000" stroke-width="7" stroke-miterlimit="10" points="683.341,0 562.95,360.6 716.551,360 
	588.55,720 "/>
<polyline fill="none" stroke="#000000" stroke-width="7" stroke-miterlimit="10" points="668.021,0 547.591,360.719 731.911,360 
	603.911,720 "/>
<polyline fill="none" stroke="#000000" stroke-width="7" stroke-miterlimit="10" points="649.637,0 529.159,360.862 750.344,360 
	622.343,720 "/>
<polyline fill="none" stroke="#000000" stroke-width="7" stroke-miterlimit="10" points="627.577,0 507.041,361.034 772.463,360 
	644.462,720 "/>
<polyline fill="none" stroke="#000000" stroke-width="7" stroke-miterlimit="10" points="601.104,0 480.5,361.24 799.006,360 
	671.006,720 "/>
<polyline fill="none" stroke="#000000" stroke-width="7" stroke-miterlimit="10" points="569.338,0 448.65,361.488 830.857,360 
	702.856,720 "/>
<polyline fill="none" stroke="#000000" stroke-width="7" stroke-miterlimit="10" points="531.217,0 410.431,361.785 869.079,360 
	741.078,720 "/>
<polyline fill="none" stroke="#000000" stroke-width="7" stroke-miterlimit="10" points="485.473,0 364.567,362.142 914.945,360 
	786.944,720 "/>
<polyline fill="none" stroke="#000000" stroke-width="7" stroke-miterlimit="10" points="430.58,0 309.531,362.569 969.984,360 
	841.983,720 "/>
<polyline fill="none" stroke="#000000" stroke-width="7" stroke-miterlimit="10" points="364.708,0 243.488,363.083 1036.031,360 
	908.031,720 "/>
<polyline fill="none" stroke="#000000" stroke-width="7" stroke-miterlimit="10" points="285.661,0 164.236,363.699 1115.288,360 
	987.287,720 "/>
<polyline fill="none" stroke="#000000" stroke-width="7" stroke-miterlimit="10" points="190.806,0 69.134,364.438 1210.396,360 
	1082.396,720 "/>
<polyline fill="none" stroke="#000000" stroke-width="7" stroke-miterlimit="10" points="113.575,0 -0.462,365.326 1280,360 
	1160.323,720 "/>
</svg>
