<?xml version="1.0" encoding="utf-8"?>
<!-- Generator: Adobe Illustrator 16.0.0, SVG Export Plug-In . SVG Version: 6.00 Build 0)  -->
<!DOCTYPE svg PUBLIC "-//W3C//DTD SVG 1.1//EN" "http://www.w3.org/Graphics/SVG/1.1/DTD/svg11.dtd">
<svg version="1.1" id="Layer_1" xmlns="http://www.w3.org/2000/svg" xmlns:xlink="http://www.w3.org/1999/xlink" x="0px" y="0px"
	 width="1280px" height="720px" viewBox="0 0 1280 720" enable-background="new 0 0 1280 720" xml:space="preserve">
<polyline fill="none" stroke="#000000" stroke-width="7" stroke-miterlimit="10" points="676.352,0 598.206,360.5 681.313,360 
	598.206,720 "/>
<polyline fill="none" stroke="#000000" stroke-width="7" stroke-miterlimit="10" points="668.062,0 589.896,360.6 689.625,360 
	606.518,719.999 "/>
<polyline fill="none" stroke="#000000" stroke-width="7" stroke-miterlimit="10" points="658.116,0 579.923,360.719 699.598,360 
	681.75,437.312 616.49,720 "/>
<polyline fill="none" stroke="#000000" stroke-width="7" stroke-miterlimit="10" points="646.18,0 567.956,360.862 711.566,360 
	628.458,720 "/>
<polyline fill="none" stroke="#000000" stroke-width="7" stroke-miterlimit="10" points="631.856,0 553.595,361.034 725.928,360 
	642.819,720 "/>
<polyline fill="none" stroke="#000000" stroke-width="7" stroke-miterlimit="10" points="614.668,0 536.362,361.24 743.161,360 
	660.053,720 "/>
<polyline fill="none" stroke="#000000" stroke-width="7" stroke-miterlimit="10" points="594.042,0 515.683,361.488 763.842,360 
	680.733,720 "/>
<polyline fill="none" stroke="#000000" stroke-width="7" stroke-miterlimit="10" points="569.292,0 490.868,361.785 788.658,360 
	705.55,720 "/>
<polyline fill="none" stroke="#000000" stroke-width="7" stroke-miterlimit="10" points="539.591,0 461.089,362.142 818.438,360 
	735.331,720 "/>
<polyline fill="none" stroke="#000000" stroke-width="7" stroke-miterlimit="10" points="503.95,0 425.356,362.569 854.174,360 
	771.065,720 "/>
<polyline fill="none" stroke="#000000" stroke-width="7" stroke-miterlimit="10" points="461.181,0 382.476,363.083 897.057,360 "/>
<polyline fill="none" stroke="#000000" stroke-width="7" stroke-miterlimit="10" points="409.858,0 331.019,363.699 948.517,360 
	865.409,720 "/>
<polyline fill="none" stroke="#000000" stroke-width="7" stroke-miterlimit="10" points="348.27,0 269.271,364.438 1010.269,360 
	927.16,720 "/>
<polyline fill="none" stroke="#000000" stroke-width="7" stroke-miterlimit="10" points="274.364,0 195.173,365.326 1084.37,360 
	1001.262,720 "/>
<polyline fill="none" stroke="#000000" stroke-width="7" stroke-miterlimit="10" points="185.679,0 106.256,366.391 1173.293,360 
	1090.186,720.001 "/>
<polyline fill="none" stroke="#000000" stroke-width="7" stroke-miterlimit="10" points="79.255,0 -0.444,367.668 1280,360 
	1196.892,720 "/>
<path fill="none" stroke="#000000" stroke-width="7" stroke-miterlimit="10" d="M813.948,720"/>
</svg>
