<?xml version="1.0" encoding="utf-8"?>
<!-- Generator: Adobe Illustrator 16.0.0, SVG Export Plug-In . SVG Version: 6.00 Build 0)  -->
<!DOCTYPE svg PUBLIC "-//W3C//DTD SVG 1.1//EN" "http://www.w3.org/Graphics/SVG/1.1/DTD/svg11.dtd">
<svg version="1.1" id="Layer_1" xmlns="http://www.w3.org/2000/svg" xmlns:xlink="http://www.w3.org/1999/xlink" x="0px" y="0px"
	 width="1280px" height="720px" viewBox="0 0 1280 720" enable-background="new 0 0 1280 720" xml:space="preserve">
<rect x="542.5" y="313.536" transform="matrix(0.7071 0.7071 -0.7071 0.7071 478.1006 -332.1593)" fill="none" stroke="#000000" stroke-miterlimit="10" width="195.001" height="195"/>
<rect x="537.625" y="303.661" transform="matrix(0.7071 0.7071 -0.7071 0.7071 474.5651 -333.6237)" fill="none" stroke="#000000" stroke-miterlimit="10" width="204.751" height="204.75"/>
<rect x="532.506" y="293.542" transform="matrix(0.7071 0.7071 -0.7071 0.7071 471.0269 -335.0876)" fill="none" stroke="#000000" stroke-miterlimit="10" width="214.988" height="214.987"/>
<rect x="527.131" y="283.168" transform="matrix(0.7071 0.7071 -0.7071 0.7071 467.4937 -336.5526)" fill="none" stroke="#000000" stroke-miterlimit="10" width="225.738" height="225.736"/>
<rect x="521.488" y="272.524" transform="matrix(0.7071 0.7071 -0.7071 0.7071 463.9558 -338.0166)" fill="none" stroke="#000000" stroke-miterlimit="10" width="237.024" height="237.023"/>
<rect x="515.562" y="261.599" transform="matrix(0.7071 0.7071 -0.7071 0.7071 460.4226 -339.4814)" fill="none" stroke="#000000" stroke-miterlimit="10" width="248.876" height="248.874"/>
<rect x="509.34" y="250.378" transform="matrix(0.7071 0.7071 -0.7071 0.7071 456.887 -340.9459)" fill="none" stroke="#000000" stroke-miterlimit="10" width="261.319" height="261.318"/>
<rect x="502.807" y="238.844" transform="matrix(0.7071 0.7071 -0.7071 0.7071 453.3494 -342.4099)" fill="none" stroke="#000000" stroke-miterlimit="10" width="274.385" height="274.384"/>
<rect x="495.948" y="226.985" transform="matrix(0.7071 0.7071 -0.7071 0.7071 449.8138 -343.8744)" fill="none" stroke="#000000" stroke-miterlimit="10" width="288.105" height="288.103"/>
<rect x="488.745" y="214.782" transform="matrix(0.7071 0.7071 -0.7071 0.7071 446.2781 -345.3389)" fill="none" stroke="#000000" stroke-miterlimit="10" width="302.509" height="302.508"/>
<rect x="481.183" y="202.219" transform="matrix(0.7071 0.7071 -0.7071 0.7071 442.7426 -346.8033)" fill="none" stroke="#000000" stroke-miterlimit="10" width="317.635" height="317.634"/>
<rect x="473.242" y="189.278" transform="matrix(0.7071 0.7071 -0.7071 0.7071 439.2072 -348.2678)" fill="none" stroke="#000000" stroke-miterlimit="10" width="333.517" height="333.515"/>
<rect x="464.904" y="175.94" transform="matrix(0.7071 0.7071 -0.7071 0.7071 435.6702 -349.7319)" fill="none" stroke="#000000" stroke-miterlimit="10" width="350.193" height="350.192"/>
<rect x="456.149" y="162.185" transform="matrix(0.7071 0.7071 -0.7071 0.7071 432.1339 -351.1963)" fill="none" stroke="#000000" stroke-miterlimit="10" width="367.701" height="367.701"/>
<rect x="446.957" y="147.993" transform="matrix(0.7071 0.7071 -0.7071 0.7071 428.5984 -352.6608)" fill="none" stroke="#000000" stroke-miterlimit="10" width="386.086" height="386.086"/>
<rect x="437.305" y="133.34" transform="matrix(0.7071 0.7071 -0.7071 0.7071 425.063 -354.1252)" fill="none" stroke="#000000" stroke-miterlimit="10" width="405.391" height="405.391"/>
<rect x="427.169" y="118.206" transform="matrix(0.7071 0.7071 -0.7071 0.7071 421.5292 -355.5898)" fill="none" stroke="#000000" stroke-miterlimit="10" width="425.661" height="425.66"/>
<rect x="416.528" y="102.564" transform="matrix(0.7071 0.7071 -0.7071 0.7071 417.9924 -357.0541)" fill="none" stroke="#000000" stroke-miterlimit="10" width="446.944" height="446.944"/>
</svg>
