<?xml version="1.0" encoding="utf-8"?>
<!-- Generator: Adobe Illustrator 16.0.0, SVG Export Plug-In . SVG Version: 6.00 Build 0)  -->
<!DOCTYPE svg PUBLIC "-//W3C//DTD SVG 1.1//EN" "http://www.w3.org/Graphics/SVG/1.1/DTD/svg11.dtd">
<svg version="1.1" id="Layer_1" xmlns="http://www.w3.org/2000/svg" xmlns:xlink="http://www.w3.org/1999/xlink" x="0px" y="0px"
	 width="1400px" height="1050px" viewBox="0 0 1400 1050" enable-background="new 0 0 1400 1050" xml:space="preserve">
<line fill="none" stroke="#010101" stroke-miterlimit="10" x1="1.75" y1="994.945" x2="1398.25" y2="994.945"/>
<line fill="none" stroke="#010101" stroke-miterlimit="10" x1="1.75" y1="947.226" x2="1398.25" y2="947.226"/>
<line fill="none" stroke="#010101" stroke-miterlimit="10" x1="1.75" y1="851.787" x2="1398.25" y2="851.787"/>
<line fill="none" stroke="#010101" stroke-miterlimit="10" x1="1.75" y1="762.314" x2="1398.25" y2="762.314"/>
<line fill="none" stroke="#010101" stroke-miterlimit="10" x1="1.75" y1="678.806" x2="1398.25" y2="678.806"/>
<line fill="none" stroke="#010101" stroke-miterlimit="10" x1="1.75" y1="644.506" x2="1398.25" y2="644.506"/>
<line fill="none" stroke="#010101" stroke-miterlimit="10" x1="1.75" y1="616.176" x2="1398.25" y2="616.176"/>
<line fill="none" stroke="#010101" stroke-miterlimit="10" x1="1.75" y1="587.842" x2="1398.25" y2="587.842"/>
<line fill="none" stroke="#010101" stroke-miterlimit="10" x1="1.75" y1="586.476" x2="1398.25" y2="586.476"/>
<line fill="none" stroke="#010101" stroke-miterlimit="10" x1="1.75" y1="549.49" x2="1398.25" y2="549.49"/>
<line fill="none" stroke="#010101" stroke-miterlimit="10" x1="1.75" y1="512.505" x2="1398.25" y2="512.505"/>
<line fill="none" stroke="#010101" stroke-miterlimit="10" x1="1.75" y1="467.734" x2="1398.25" y2="467.734"/>
<line fill="none" stroke="#010101" stroke-miterlimit="10" x1="1.75" y1="358.724" x2="1398.25" y2="358.724"/>
<line fill="none" stroke="#010101" stroke-miterlimit="10" x1="1.75" y1="241.928" x2="1398.25" y2="241.928"/>
<line fill="none" stroke="#010101" stroke-miterlimit="10" x1="1.75" y1="117.346" x2="1398.25" y2="117.346"/>
<line fill="none" stroke="#010101" stroke-miterlimit="10" x1="1.75" y1="55.055" x2="1398.25" y2="55.055"/>
</svg>
