<?xml version="1.0" encoding="utf-8"?>
<!-- Generator: Adobe Illustrator 16.0.0, SVG Export Plug-In . SVG Version: 6.00 Build 0)  -->
<!DOCTYPE svg PUBLIC "-//W3C//DTD SVG 1.1//EN" "http://www.w3.org/Graphics/SVG/1.1/DTD/svg11.dtd">
<svg version="1.1" id="Layer_3" xmlns="http://www.w3.org/2000/svg" xmlns:xlink="http://www.w3.org/1999/xlink" x="0px" y="0px"
	 width="1400px" height="1050px" viewBox="-60 -165 1400 1050" enable-background="new -60 -165 1400 1050" xml:space="preserve">
<path fill="none" stroke="#000000" stroke-miterlimit="10" d="M-60,81.594L82.372-165 M-60,334.183L228.205-165 M-60,586.775
	L374.039-165 M-60,839.366L519.872-165 M59.486,885L665.705-165 M205.319,885L811.538-165 M351.152,885l606.22-1050 M496.985,885
	l606.22-1050 M642.818,885l606.22-1050 M788.652,885L1340-69.959 M934.485,885L1340,182.63 M1080.318,885L1340,435.22 M1226.152,885
	l106.395-184.28"/>
<path fill="none" stroke="#000000" stroke-miterlimit="10" d="M-521.206,885L85.014-165 M-476.052,885L130.167-165
	 M-183.321,422.855L82.097-36.858"/>
<path fill="none" stroke="#000000" stroke-miterlimit="10" d="M-257.36,885L348.86-165 M-212.206,885L394.013-165 M80.525,422.855
	L345.943-36.858"/>
<path fill="none" stroke="#000000" stroke-miterlimit="10" d="M-58.451,885L547.768-165 M-13.298,885l606.22-1050 M279.433,422.855
	L544.85-36.858"/>
<path fill="none" stroke="#000000" stroke-miterlimit="10" d="M140.458,885L746.677-165 M185.612,885L791.831-165 M478.343,422.855
	L743.76-36.858"/>
<path fill="none" stroke="#000000" stroke-miterlimit="10" d="M339.366,885L945.585-165 M384.52,885L990.739-165 M677.252,422.855
	L942.669-36.858"/>
<path fill="none" stroke="#000000" stroke-miterlimit="10" d="M538.274,885l606.22-1050 M583.429,885l606.22-1050 M876.161,422.855
	l265.416-459.714"/>
<path fill="none" stroke="#000000" stroke-miterlimit="10" d="M737.184,885l606.219-1050 M782.338,885l606.219-1050
	 M1075.069,422.855l265.417-459.714"/>
<path fill="none" stroke="#000000" stroke-miterlimit="10" d="M936.092,885l606.22-1050 M981.246,885l606.22-1050 M1273.979,422.855
	l265.416-459.714"/>
<path fill="none" stroke="#000000" stroke-miterlimit="10" d="M1135.001,885L1741.22-165 M1180.155,885l606.219-1050
	 M1472.887,422.855l265.417-459.714"/>
</svg>
