<?xml version="1.0" encoding="utf-8"?>
<!-- Generator: Adobe Illustrator 16.0.0, SVG Export Plug-In . SVG Version: 6.00 Build 0)  -->
<!DOCTYPE svg PUBLIC "-//W3C//DTD SVG 1.1//EN" "http://www.w3.org/Graphics/SVG/1.1/DTD/svg11.dtd">
<svg version="1.1" id="Layer_1" xmlns="http://www.w3.org/2000/svg" xmlns:xlink="http://www.w3.org/1999/xlink" x="0px" y="0px"
	 width="1024px" height="768px" viewBox="0 0 1024 768" enable-background="new 0 0 1024 768" xml:space="preserve">
<path fill="none" stroke="#000000" stroke-miterlimit="10" d="M63.5,766.5h-64v-64h64V766.5z M128.5,671.5h-64v64h64V671.5z
	 M160.5,638.5h-64v64h64V638.5z M256.5,574.5h-64v64h64V574.5z M288.5,542.5h-64v64h64V542.5z M352,639.5h-63.5v64H352 M384.5,667
	v-63.5h-64V667 M64.5,543.5v64h64v-64H64.5z M447.5,415.5v64h64v-64H447.5z M32.5,607.5v64h64v-64H32.5z M0.5,575.5v64h64v-64H0.5z
	 M512.5,352v63.5h64V352 M608.5,383v-63.5h-64V383 M800.5,737v-63.5h-64V737 M544.5,415.5v64h64v-64H544.5z M128.5,574.5v64h64v-64
	H128.5z M192.5,670.5v64h64v-64H192.5z M224.5,606.5v64h64v-64H224.5z M417.5,319.5v64h64v-64H417.5z M544.5,224v63.5h64V224
	 M575.5,193v63.5h64V193 M384.5,287.5v64h64v-64H384.5z M287.5,223.5v64h64v-64H287.5z M256,129.5h-63.5V194 M672.5,608.5v64h64v-64
	H672.5z M640.5,577.5v64h64v-64H640.5z M160.5,702.5h-64v64h64V702.5z M320.5,670.5h-64v64h64V670.5z M160.5,702.5v64h64v-64H160.5z
	 M288.5,702.5h-64v64h64V702.5z M448.5,703.5h-64v64h64V703.5z M480.5,671.5h-64v64h64V671.5z M480.5,448v63.5h64V448 M512.5,545
	v63.5h64V545 M448.5,577v63.5h64V577 M480.5,640v63.5h64V640 M320.5,511v63.5h64V511 M543,575.5h64.5V512 M575,543.5h64.5V480
	 M416.5,479.5v64h64v-64H416.5z M416,607.5h64.5V544 M511.5,510.5 M639,384.5h64.5V321 M895.5,130V66 M863,160.5h64 M960.5,162V98
	 M896.5,161v64 M608,351.5h64.5V288 M639.5,320.5 M703,288.5h64.5V225 M255,255.5h64.5V192 M767,703.5h64.5V640 M703.5,224.5
	 M352.5,639.5v64h64v-64H352.5z M608.5,703.5h-64v64h64V703.5z M640.5,671.5h-64v64h64V671.5z M640.5,640v63.5h64V640 M512.5,639.5
	v64h64v-64H512.5z M320.5,703.5v64h64v-64H320.5z"/>
</svg>
