<?xml version="1.0" encoding="utf-8"?>
<!-- Generator: Adobe Illustrator 16.0.0, SVG Export Plug-In . SVG Version: 6.00 Build 0)  -->
<!DOCTYPE svg PUBLIC "-//W3C//DTD SVG 1.1//EN" "http://www.w3.org/Graphics/SVG/1.1/DTD/svg11.dtd">
<svg version="1.1" id="Layer_1" xmlns="http://www.w3.org/2000/svg" xmlns:xlink="http://www.w3.org/1999/xlink" x="0px" y="0px"
	 width="1024px" height="768px" viewBox="0 0 1024 768" enable-background="new 0 0 1024 768" xml:space="preserve">
<path fill="none" stroke="#000000" stroke-miterlimit="10" d="M64.5,478.5h-64v-64h64V478.5z M128.5,383.5h-64v64h64V383.5z
	 M160.5,350.5h-64v64h64V350.5z M256.5,286.5h-64v64h64V286.5z M288.5,255.5h-64v64h64V255.5z M352,351.5h-63.5v64H352 M384.5,383
	v-63.5h-64V383 M64.5,255.5v64h64v-64H64.5z M767.5,384.5v64h64v-64H767.5z M32.5,319.5v64h64v-64H32.5z M0.5,287.5v64h64v-64H0.5z
	 M831.5,321v63.5h64V321 M927.5,352v-63.5h-64V352 M864.5,384.5v64h64v-64H864.5z M128.5,286.5v64h64v-64H128.5z M192.5,383.5v64h64
	v-64H192.5z M224.5,319.5v64h64v-64H224.5z M736.5,288.5v64h64v-64H736.5z M480.5,128v63.5h64V128 M511.5,97v63.5h64V97
	 M767.5,255.5v64h64v-64H767.5z M223.5,127.5v64h64v-64H223.5z M192,33.5h-63.5V98 M672.5,319.5v64h64v-64H672.5z M608.5,319.5v64
	h64v-64H608.5z M160.5,414.5h-64v64h64V414.5z M160.5,414.5v64h64v-64H160.5z M448.5,415.5h-64v64h64V415.5z M480.5,383.5h-64v64h64
	V383.5z M800.5,417v63.5h64V417 M512.5,257v63.5h64V257 M448.5,289v63.5h64V289 M480.5,352v63.5h64V352 M352.5,256v63.5h64V256
	 M543,287.5h64.5V224 M575,255.5h64.5V192 M831.5,320.5v64h64v-64H831.5z M416,319.5h64.5V256 M511.5,222.5 M958,353.5h64.5V290
	 M831.5,128V64 M799,158.5h64 M896.5,160V96 M832.5,159v64 M927,320.5h64.5V257 M958.5,289.5 M639,192.5h64.5V129 M191,159.5h64.5
	V96 M767,415.5h64.5V352 M639.5,128.5 M352.5,351.5v64h64v-64H352.5z M608.5,415.5h-64v64h64V415.5z M640.5,383.5h-64v64h64V383.5z
	 M640.5,352v63.5h64V352 M512.5,351.5v64h64v-64H512.5z M320.5,415.5v64h64v-64H320.5z M543.5,639v-63.5h-64V639 M512.5,670v-63.5
	h-64V670 M800.5,639.5v-64h-64v64H800.5z M832,733.5h63.5V669 M481,479.5h-64.5V543 M449,511.5h-64.5V575 M512.5,544.5 M192.5,639
	v64 M225,608.5h-64 M127.5,607v64 M191.5,608v-64 M385,575.5h-64.5V639 M833,607.5h-64.5V671 M384.5,638.5 M350.5,673v-63.5h-64V673
	 M383.5,704v-63.5h-64V704"/>
</svg>
