<?xml version="1.0" encoding="utf-8"?>
<!-- Generator: Adobe Illustrator 16.0.0, SVG Export Plug-In . SVG Version: 6.00 Build 0)  -->
<!DOCTYPE svg PUBLIC "-//W3C//DTD SVG 1.1//EN" "http://www.w3.org/Graphics/SVG/1.1/DTD/svg11.dtd">
<svg version="1.1" id="Layer_1" xmlns="http://www.w3.org/2000/svg" xmlns:xlink="http://www.w3.org/1999/xlink" x="0px" y="0px"
	 width="1400px" height="1050px" viewBox="100 -55 1400 1050" enable-background="new 100 -55 1400 1050" xml:space="preserve">
<path fill="none" stroke="#000000" stroke-miterlimit="10" d="M197.312,446.424h22.646 M325.263,460.518h7.927 M356.968,419.412
	h18.117 M384.91,374.195h11.323 M492.479,344.835h13.588 M126,165.459h30.572 M210.923,165.459h4.529 M293.582,192.471h13.588
	 M475.883,178.377h5.661 M532.499,178.377h5.662 M616.29,210.087h21.514 M720.461,165.459h6.794 M363.762,325.459h11.323
	 M409.054,282.005h7.926 M393.403,229.742h14.153 M222.246,285.25h7.926 M329.815,397.994h19.815 M485.791,300.518h19.532
	 M304.749,320.006h5.662 M414.583,246.017h3.397 M431.567,283.599h6.794 M208.635,319.587h18.117 M433.27,298.857h-9.058
	 M489.119,366.388h-13.588 M440.393,198.62h-5.661"/>
<path fill="none" stroke="#000000" stroke-miterlimit="10" d="M1323.383,858.236h3.396 M1262.238,881.725h1.132 M1367.891,822.202
	h14.72 M1253.528,851.562h9.058 M1190.118,866.829h11.323 M1079.152,851.562h6.793 M1220.538,908.518h13.588 M1115.232,888.553h4.53
	 M1133.35,888.553h7.927 M1378.074,613.459H1386 M1444.879,761.436h10.191 M1365.618,709.762h7.927 M1331.083,715.634h8.492
	 M1217.286,739.122h6.793 M1292.63,774.186h10.756 M1231.447,707.108h12.455 M1201.441,776.398h26.043 M1204.686,796.654h22.646
	 M1137.313,767.588h3.963 M1299.952,633.12h11.889 M1396.198,669.526h-1.133 M1292.63,682.581h22.646"/>
<path fill="none" stroke="#000000" stroke-miterlimit="10" d="M172.014,635.669h-22.646 M285.245,621.575h-7.927 M458.123,737.258
	h-13.588 M259.225,889.622h-13.588 M433.6,903.716h-5.661 M490.216,903.716h-5.662 M327.14,756.634h-11.323 M369.036,800.089h-7.926
	 M359.612,852.352h-14.153 M182.228,796.844h-7.926 M301.687,684.099h-19.815 M457.379,781.575h-19.532 M262.466,762.087h-5.662
	 M370.035,836.076h-3.397 M390.417,798.495h-6.794 M178.808,762.507h-18.117 M376.268,783.236h9.058 M386.788,883.474h5.661"/>
<path fill="none" stroke="#000000" stroke-miterlimit="10" d="M1200.235,424.109h7.926 M1217.221,418.237h3.396 M1280.63,441.725
	h1.132 M1121.759,402.166h4.528 M1161.39,382.202h14.72 M1281.414,411.562h9.058 M1342.559,426.829h11.323 M1458.055,411.562h6.793
	 M1309.874,468.518h13.588 M1424.237,448.553h4.53 M1402.724,448.553h7.927 M937.2,186.377h7.926 M988.153,164.063h10.191
	 M1078.739,173.459h20.382 M1158,173.459h7.926 M1370.874,173.459L1370.874,173.459 M1386.727,164.063h6.794 M1482.973,157.017
	h9.059 M1482.973,179.332h4.529 M1088.93,321.436h10.191 M1170.455,269.762h7.927 M1204.425,275.634h8.492 M1319.921,299.122h6.793
	 M1386.727,232.18h15.853 M1444.475,275.634L1444.475,275.634 M1099.121,232.18h6.793 M1240.614,334.186h10.756 M1300.098,267.108
	h12.455 M1316.516,336.398h26.043 M1316.668,356.654h22.646 M1402.724,327.587h3.963 M1388.983,190.771h16.984 M1232.159,193.12
	h11.889 M1148.935,229.526h-1.133 M1274.017,248.453h-1.133 M1228.725,242.581h22.646"/>
<path fill="none" stroke="#000000" stroke-miterlimit="10" d="M784.624,280.099h-95 M1010.603,254.834h-236 M747.488,247.916h-111
	 M941.603,291.834h-304 M824.603,325.834h-77 M807.603,354.834h-33 M807.603,397.834h-33 M791.103,416.834h-16.5 M791.103,465.836
	h-16.5 M786.103,532.836h-3.25"/>
<path fill="none" stroke="#000000" stroke-miterlimit="10" d="M601.328,437.814l-47.5,82.272 M584.704,325.577l-118,204.382
	 M656.871,247.916l-55.5,96.129 M670.184,280.66l-152,263.272 M644.629,392.922l-38.5,66.684 M656.244,430.805l-16.5,28.579
	 M693.482,452.305l-16.5,28.579 M709.937,461.805l-8.25,14.289 M752.373,486.305l-8.25,14.289 M806.271,526.949l-1.625,2.814"/>
<path fill="none" stroke="#000000" stroke-miterlimit="10" d="M1055.035,516.006l-47.5-82.272 M1142.158,525.879l-118-204.382
	 M1007.492,339.964l-55.5-96.129 M1090.68,539.852l-152-263.272 M1002.734,455.525l-38.5-66.684 M969.119,455.303l-16.5-28.578
	 M931.881,476.803l-16.5-28.579 M907.176,472.014l-8.25-14.289 M864.74,496.514l-8.25-14.289 M804.217,525.684l-1.625-2.814"/>
<path fill="none" stroke="#000000" stroke-miterlimit="10" d="M964.441,702.924l-34.5,59.756 M1011.568,675.295l-20.5,35.508
	 M1023.449,765.879l-59,102.191 M1049.692,744.409l-77.75,134.668 M917.659,724.146l-77,133.368 M1041.182,683.164l-36.75,63.652
	 M1065.718,585.653l-72.75,126.006 M943.942,830.578l-22,38.104 M921.116,828.32l-14,24.249 M1089.03,615.277l-55.5,96.129
	 M1025.712,572.947L901.714,787.722 M946.688,631.823l-25.5,44.166 M877.646,621.406l-8.25,14.29 M836.729,590.276l-7.375,12.774"/>
<path fill="none" stroke="#000000" stroke-miterlimit="10" d="M618.956,885.985L449.229,592.012 M610.656,745.616l-87.153-150.954
	 M673.237,779.015l-69.722-120.763 M722.577,753.111l-80.478-139.394 M658.459,681.421l-44.897-77.764 M695.229,643.115
	l-9.508-16.468 M734.198,620.616l-9.506-16.467 M747.629,601.883l-4.752-8.233"/>
<path fill="none" stroke="#000000" stroke-miterlimit="10" d="M642.099,856.07h349.482 M756.093,811.072h85.496 M756.093,734.576
	h131.993 M681.633,727.258h131.994 M841.589,779.574h46.497 M822.09,833.571h128.993 M800,689.578h32.589 M816.295,625.082v1.499
	 M822.09,647.58h10.499"/>
</svg>
