<?xml version="1.0" encoding="utf-8"?>
<!-- Generator: Adobe Illustrator 16.0.0, SVG Export Plug-In . SVG Version: 6.00 Build 0)  -->
<!DOCTYPE svg PUBLIC "-//W3C//DTD SVG 1.1//EN" "http://www.w3.org/Graphics/SVG/1.1/DTD/svg11.dtd">
<svg version="1.1" id="Layer_3" xmlns="http://www.w3.org/2000/svg" xmlns:xlink="http://www.w3.org/1999/xlink" x="0px" y="0px"
	 width="1400px" height="1050px" viewBox="100 -75 1400 1050" enable-background="new 100 -75 1400 1050" xml:space="preserve">
<path fill="none" stroke="#000000" stroke-miterlimit="10" d="M136.125,860.595h20.05 M201.505,862.228h21.793 M272.115,862.635
	h15.691 M360.16,862.635h20.921 M456.051,862.635h20.05 M232.015,845.91h13.076 M606.86,858.555h28.768 M784.695,859.778h28.768
	 M721.929,860.595h13.947 M682.702,853.253h6.974 M558.916,850.805h11.333 M511.842,851.213h11.333 M388.055,853.253h35.742
	 M325.291,851.62h10.461 M788.728,863.655h20.05 M854.108,865.285h21.794 M924.719,865.692h15.691 M1012.764,865.692h20.922
	 M1108.655,865.692h20.05 M884.619,848.969h13.075 M1259.465,861.615h28.768 M1437.299,862.838h28.769 M1374.533,863.655h13.948
	 M1335.306,856.312h6.973 M1211.52,853.863h11.334 M1164.445,854.271h11.334 M1040.659,856.312h35.741 M977.896,854.68h10.46"/>
<path fill="none" stroke="#000000" stroke-miterlimit="10" d="M110.845,919.367h317.133 M575.661,916.423H799.52 M1049.807,913.476
	h136.802 M900.566,917.403h66.848 M224.328,900.222h284.485 M681.372,893.84h295.371 M1082.452,898.749h180.329 M294.284,878.622
	h1203.24 M570.998,887.458h15.546 M261.638,886.967h21.766"/>
<path fill="none" stroke="#000000" stroke-miterlimit="10" d="M110.845,708.319h39.793 M174.699,714.737h37.943 M285.752,714.308
	h53.675 M403.282,714.737h48.123 M530.993,714.308h37.943 M637.419,713.881h10.179 M521.739,705.324h32.39 M592.072,705.324h17.583
	 M916.885,699.337h17.583 M667.958,705.324h23.136 M403.282,702.33h37.943 M322.77,699.337h11.104 M912.259,712.385h53.677
	 M1029.79,712.811h48.121 M1029.79,700.407h37.942 M949.277,697.413h11.104 M1053.845,717.73h53.674 M1171.375,718.158h48.122
	 M1171.375,705.753h37.943 M1090.862,702.759h11.104 M1136.671,708.534h53.676 M1254.201,708.962h48.123 M1254.201,696.557h37.943
	 M1173.688,693.563h11.106 M1235.225,723.504h53.676 M1352.756,723.934h48.122 M1352.756,711.527h37.942 M1272.243,708.534h11.104
	 M1333.779,708.534h53.676 M1451.309,708.962h48.122 M1451.309,696.557h37.944 M1370.797,693.563h11.104 M837.272,723.504h53.675
	 M874.289,708.534h11.105 M825.73,717.73h32.391 M896.063,717.73h17.585 M971.95,717.73h23.136 M707.274,714.737h37.943
	 M626.762,711.741h11.104"/>
<path fill="none" stroke="#000000" stroke-miterlimit="10" d="M110.845,774.758h125.239 M392.247,772.44h465.396 M1040.09,777.076
	h384.995 M188.153,752.975h145.339 M712.304,753.902h301.502 M1380.247,753.438h117.508 M1160.689,739.069h136.063 M302.569,734.899
	h817.923"/>
<path fill="none" stroke="#000000" stroke-miterlimit="10" d="M110.845,631.386h159.926 M353.809,629.159h182.992 M752.086,628.27
	h212.209 M1061.172,626.934h232.202 M1385.639,623.371h113.793 M1199.57,606.897h87.652 M1033.493,606.452h66.124 M878.182,603.336
	h53.821 M592.16,603.336h136.86 M364.572,602.891h69.199 M192.344,601.109h63.048 M272.308,609.568h521.297 M752.086,590.423
	h332.152 M1299.524,585.08h83.038"/>
<path fill="none" stroke="#000000" stroke-miterlimit="10" d="M1055.589,572.167h35.582 M1010.462,567.714h22.563 M955.787,568.604
	h23.433 M879.418,569.94h31.242 M837.761,570.831h18.225 M740.562,574.838h20.828 M701.509,577.955h13.018 M564.391,572.167h26.903
	 M532.28,570.831h6.075 M515.792,566.378h15.621 M659.853,567.714h44.26 M412.616,585.08h28.637 M328.006,575.729h10.414
	 M242.094,579.11l16.922,0.667 M199.137,585.08h14.318 M272.032,566.378h14.32 M299.369,585.08h19.526 M367.057,562.414H399.6
	 M395.694,577.106h19.526 M455.629,565.137h12.96 M564.391,562.414h43.48 M1207.954,562.414h40.354 M1381.08,568.424h13.018
	 M1239.193,573.747h10.415 M1313.393,557.74h11.715 M1422.734,571.41h2.604 M1148.076,571.41h1.301 M1125.947,557.74h3.905
	 M1218.367,571.41L1218.367,571.41 M1275.642,548.389h15.621 M1413.623,548.389L1413.623,548.389 M726.508,558.407l5.767-2.959
	 M674.257,555.735h16.922 M479.003,552.396h10.414 M364.454,551.729h11.715 M219.965,555.735h16.922 M158.785,573.767h10.414
	 M208.25,566.734h7.811 M364.454,575.771h6.509"/>
<path fill="none" stroke="#000000" stroke-miterlimit="10" d="M109.207,501.173h219.468 M421.408,487.384h896.419 M1268.369,462.431
	h227.196 M798.522,468.998h180.83 M232.851,476.221h231.833 M606.874,468.342h71.096 M124.663,456.521h329.201 M668.696,447.329
	h251.923 M1044.264,454.553h49.458"/>
<path fill="none" stroke="#000000" stroke-miterlimit="10" d="M977.583,417.012h132.78 M472.498,417.012h32.978 M583.583,414.823
	h26.035 M677.309,410.445h29.507 M792.732,408.983h18.225 M869.97,407.89h31.243 M994.071,407.89h26.903 M945.473,398.038h31.242
	 M1041.803,394.39h13.886 M852.613,399.862h17.356 M755.415,399.862h8.679 M692.062,400.592h22.564 M598.335,399.862h18.225
	 M462.952,402.052h23.432 M1362.785,417.012h132.78 M857.701,417.012h32.978 M968.785,414.823h26.035 M1062.512,410.445h29.507
	 M1177.935,408.983h18.225 M1255.173,407.89h31.242 M1379.274,407.89h26.903 M1330.675,398.038h31.242 M1427.006,394.39h13.885
	 M1237.816,399.862h17.356 M1140.618,399.862h8.678 M1077.265,400.592h22.564 M983.538,399.862h18.225 M848.154,402.052h23.432
	 M625.475,423.631h132.78 M120.391,423.631h32.978 M231.475,421.442h26.036 M325.202,417.062h29.506 M440.625,415.604h18.225
	 M517.862,414.509h31.243 M641.964,414.509h26.903 M593.365,404.657h31.242 M689.695,401.007h13.886 M500.506,406.481h17.356
	 M403.307,406.481h8.678 M339.955,407.21h22.563 M246.228,406.481h18.225 M110.845,408.67h23.432"/>
<path fill="none" stroke="#000000" stroke-miterlimit="10" d="M115.282,324.801H317.47 M511.393,324.801h133.322 M918.633,317.328
	h94.538 M1437.256,324.801h58.296 M327.167,291.172h462.838 M724.708,302.381h753.877 M162.148,302.381h140.779"/>
<path fill="none" stroke="#000000" stroke-miterlimit="10" d="M161.759,271.323h27.29 M227.761,271.323h6.508 M325.39,271.323
	h13.016 M426.922,256.078h7.809 M484.196,261.274v-5.196 M515.22,260.235h9.763 M547.111,258.158h18.876 M614.366,258.158h9.112
	 M746.273,277.56l8.461-6.755 M764.428,258.158h8.746 M791.397,243.604h15.555 M817.367,270.804l10.195-8.141 M773.609,266.734
	h15.621 M381.362,256.771h10.414 M284.511,251.575v-1.039 M256.398,262.663h20.827 M614.366,261.274h22.78 M685.96,264.394h16.922
	 M784.25,275.826h27.29 M850.253,275.826h6.51 M947.88,275.826h13.018 M1049.413,260.58h7.809 M1106.688,265.778v-5.197
	 M1137.711,264.739h9.764 M1169.604,262.661h18.875 M1236.857,262.66h9.113 M1368.765,282.064l8.461-6.755 M1386.92,262.66h8.745
	 M1413.889,248.109h15.555 M1439.858,275.309l10.196-8.142 M1396.101,271.238h15.62 M1003.854,261.275h10.413 M907.003,256.08v-1.04
	 M878.89,267.166h20.828 M1236.857,265.778h22.779 M1308.451,268.896h16.922"/>
<path fill="none" stroke="#000000" stroke-miterlimit="10" d="M104,179.875h277.016 M544.708,174.705h283.905 M1011.711,187.115
	h279.238 M284.727,144.711H1343.91 M1221.142,166.43h274.424"/>
<path fill="none" stroke="#000000" stroke-miterlimit="10" d="M104,126.047h29.938 M188.61,123.034h15.62 M307.064,121.312h9.112
	 M333.098,126.047h11.715 M437.234,121.312h5.208 M503.621,126.047h40.353 M598.646,121.312h22.128 M697.574,121.312h1.302
	 M765.263,123.034h9.111 M523.797,112.703h20.177 M416.327,108.399h11.797 M538.789,117.223h29.939 M623.399,114.21h15.621
	 M741.854,112.488h9.111 M767.888,117.223h11.715 M872.024,112.488h5.206 M938.41,117.223h40.354 M1033.435,112.488h22.128
	 M1132.364,112.488h1.302 M1200.052,114.21h9.112 M958.587,103.878h20.177 M851.115,99.574h11.798 M825.177,126.047h29.938
	 M909.787,123.034h15.62 M1028.242,121.312h9.111 M1054.275,126.047h11.715 M1158.411,121.312h5.208 M1224.799,126.047h40.353
	 M1319.823,121.312h22.128 M1418.752,121.312h1.302 M1486.44,123.034h9.111 M1244.975,112.703h20.177 M1137.504,108.399h11.798"/>
<path fill="none" stroke="#000000" stroke-miterlimit="10" d="M120.186,29.538H358.98 M482.229,25.537h246.497 M1166.256,21.093
	h309.662 M110.943,51.313H358.98 M429.848,51.313h1066.098 M1084.604,26.425h-92.437"/>
<path fill="none" stroke="#000000" stroke-miterlimit="10" d="M435.516-1.536h154.476 M791.331-10.639h-18.225 M733.186-8.455
	h-9.546 M648.137-8.455h-7.811 M559.617-8.455h-15.621 M425.97-9.183h-27.771 M363.485-2.992h-29.507 M249.797-2.264h-20.828
	 M123.96,0.649h-14.753 M184.709,0.649h-9.546 M188.181-8.818h-6.943 M535.317-13.916h-10.414 M471.965-13.916h-7.811
	 M318.357-13.916h-14.753 M273.663-19.196v-0.729 M1007.246-4.849h154.476 M824.132-13.953h-18.225 M873.599-11.767h-9.547
	 M956.911-11.767h-7.811 M1053.242-11.767h-15.621 M1199.039-12.496h-27.771 M1263.26-6.306h-29.506 M1368.27-5.578h-20.829
	 M1488.031-2.665h-14.754 M1422.074-2.665h-9.546 M1416-12.132h-6.942 M1072.334-17.229h-10.414 M1133.084-17.229h-7.812
	 M1293.634-17.229h-14.753 M1323.574-23.237v0.728"/>
</svg>
