<?xml version="1.0" encoding="utf-8"?>
<!-- Generator: Adobe Illustrator 16.0.0, SVG Export Plug-In . SVG Version: 6.00 Build 0)  -->
<!DOCTYPE svg PUBLIC "-//W3C//DTD SVG 1.1//EN" "http://www.w3.org/Graphics/SVG/1.1/DTD/svg11.dtd">
<svg version="1.1" id="Layer_2" xmlns="http://www.w3.org/2000/svg" xmlns:xlink="http://www.w3.org/1999/xlink" x="0px" y="0px"
	 width="1400px" height="1050px" viewBox="-60 -13 1400 1050" enable-background="new -60 -13 1400 1050" xml:space="preserve">
<path fill="none" stroke="#484848" stroke-miterlimit="10" d="M15.782,307.024l-25.812-25.81l25.752-25.753l25.811,25.811
	L15.782,307.024z M34.299,361.753L8.488,335.942l-25.752,25.753l25.811,25.81L34.299,361.753z M113.876,413.298l-25.812-25.811
	l-25.753,25.752l25.811,25.811L113.876,413.298z M165.42,315.635l-25.811-25.811l-25.752,25.752l25.811,25.812L165.42,315.635z"/>
<path fill="none" stroke="#484848" stroke-miterlimit="10" d="M34.299,651.124L8.488,625.312l-25.752,25.753l25.811,25.811
	L34.299,651.124z M191.645,868.152l-25.811-25.811l-25.753,25.752l25.811,25.811L191.645,868.152z M74.992,789.48L49.181,763.67
	l-25.753,25.752l25.812,25.812L74.992,789.48z M85.844,815.704l-25.812-25.812L34.28,815.646l25.812,25.81L85.844,815.704z
	 M113.876,906.133l-25.812-25.812l-25.753,25.754l25.811,25.809L113.876,906.133z M191.645,727.988l-25.811-25.811l-25.753,25.752
	l25.811,25.812L191.645,727.988z"/>
<path fill="none" stroke="#484848" stroke-miterlimit="10" d="M1104.972,829.269l-25.811-25.812l-25.753,25.753l25.811,25.811
	L1104.972,829.269z M1164.654,739.744l-25.81-25.812l-25.753,25.753l25.809,25.811L1164.654,739.744z M1164.654,887.143
	l-25.81-25.811l-25.753,25.753l25.809,25.809L1164.654,887.143z M1164.654,855.492l-25.81-25.811l-25.753,25.753l25.809,25.811
	L1164.654,855.492z M1276.785,919.696l-25.81-25.812l-25.753,25.754l25.811,25.81L1276.785,919.696z M1292.159,851.875
	l-25.812-25.811l-25.752,25.753l25.811,25.811L1292.159,851.875z"/>
<path fill="none" stroke="#484848" stroke-miterlimit="10" d="M1161.038,264.09l-25.812-25.81l-25.753,25.752l25.812,25.811
	L1161.038,264.09z M1232.477,335.528l-25.812-25.811l-25.753,25.753l25.812,25.811L1232.477,335.528z M1265.936,264.09
	l-25.811-25.81l-25.754,25.752l25.811,25.811L1265.936,264.09z M1303.012,361.753l-25.812-25.811l-25.754,25.753l25.812,25.811
	L1303.012,361.753z M1303.012,387.074l-25.812-25.812l-25.754,25.752l25.812,25.812L1303.012,387.074z M1322.904,309.305
	l-25.811-25.811l-25.753,25.752l25.81,25.811L1322.904,309.305z"/>
<path fill="none" stroke="#000000" stroke-miterlimit="10" d="M921.652,933.354l70.976,70.977l70.977-70.977l-70.976-70.975
	L921.652,933.354z M1039.947,815.061l70.975,70.975l70.977-70.975l-70.977-70.977L1039.947,815.061z M1132.662,722.344
	l70.977,70.979l70.977-70.979l-70.977-70.975L1132.662,722.344z M1154.035,524.627l70.814,70.816l70.652-70.652l-70.814-70.817
	L1154.035,524.627z"/>
<path fill="none" stroke="#000000" stroke-miterlimit="10" d="M40.229,574.742l-70.815-70.816l70.652-70.652l70.817,70.816
	L40.229,574.742z M252.2,504.09l-70.815-70.816l-70.653,70.652l70.816,70.816L252.2,504.09z"/>
<path fill="none" stroke="#000000" stroke-miterlimit="10" d="M121.259,348.746L50.441,277.93l-70.653,70.653l70.816,70.815
	L121.259,348.746z M251.939,348.746l-70.817-70.816l-70.653,70.653l70.817,70.815L251.939,348.746z M345.393,348.746l-70.817-70.816
	l-70.653,70.653l70.816,70.815L345.393,348.746z"/>
<path fill="none" stroke="#000000" stroke-miterlimit="10" d="M1234.775,302.399l-70.816-70.816l-70.653,70.652l70.815,70.814
	L1234.775,302.399z M1123.848,395.093l-70.816-70.816l-70.652,70.652l70.817,70.816L1123.848,395.093z"/>
<path fill="none" stroke="#000000" stroke-miterlimit="10" d="M574.881,287.457l148.881,148.88L575.224,584.874l-148.881-148.88
	L574.881,287.457z M1170.339,286.767l148.882,148.881l-148.538,148.538l-148.882-148.881L1170.339,286.767z"/>
<path fill="none" stroke="#000000" stroke-miterlimit="10" d="M886.559,457.495l-148.881,148.88L589.141,457.838l148.881-148.88
	L886.559,457.495z M291.102,456.807L142.22,605.688L-6.318,457.15l148.882-148.881L291.102,456.807z"/>
<path fill="none" stroke="#000000" stroke-miterlimit="10" d="M791.832,689.632L642.949,540.747L494.408,689.289l148.883,148.882
	L791.832,689.632z"/>
<rect x="493.635" y="330.842" transform="matrix(-0.7071 -0.7071 0.7071 -0.7071 757.8517 1272.6395)" fill="none" stroke="#000000" stroke-miterlimit="10" width="297.729" height="297.043"/>
<rect x="283.029" y="331.529" transform="matrix(-0.7071 -0.7071 0.7071 -0.7071 397.8418 1124.8922)" fill="none" stroke="#000000" stroke-miterlimit="10" width="297.729" height="297.043"/>
<rect x="704.242" y="331.526" transform="matrix(-0.7071 -0.7071 0.7071 -0.7071 1116.9009 1422.73)" fill="none" stroke="#000000" stroke-miterlimit="10" width="297.729" height="297.043"/>
<path fill="none" stroke="#000000" stroke-miterlimit="10" d="M644.064,932.81L367.813,656.559l275.614-275.614l276.249,276.25
	L644.064,932.81z"/>
</svg>
