<?xml version="1.0" encoding="utf-8"?>
<!-- Generator: Adobe Illustrator 16.0.0, SVG Export Plug-In . SVG Version: 6.00 Build 0)  -->
<!DOCTYPE svg PUBLIC "-//W3C//DTD SVG 1.1//EN" "http://www.w3.org/Graphics/SVG/1.1/DTD/svg11.dtd">
<svg version="1.1" id="Layer_1" xmlns="http://www.w3.org/2000/svg" xmlns:xlink="http://www.w3.org/1999/xlink" x="0px" y="0px"
	 width="1024px" height="768px" viewBox="0 0 1024 768" enable-background="new 0 0 1024 768" xml:space="preserve">
<path fill="none" stroke="#000000" stroke-miterlimit="10" d="M884.505,344.419l-27.3-27.299l27.3-27.299l27.3,27.299
	L884.505,344.419z M954.805,316.12l-27.3-27.299l-27.3,27.299l27.3,27.299L954.805,316.12z M1004.195,312.729l-30.69-30.69
	l-30.69,30.69l30.69,30.689L1004.195,312.729z"/>
<path fill="none" stroke="#000000" stroke-miterlimit="10" d="M262.5,189.826L210.174,137.5L262.5,85.174l52.326,52.326
	L262.5,189.826z M499.165,453.163l-129.001-129l-129,129l129,129L499.165,453.163z M457.164,237.163l-87.001-87l-87,87l87,87
	L457.164,237.163z M497.68,490.561L300.371,293.253L103.062,490.561l197.309,197.307L497.68,490.561z M450.663,378.338
	L233.501,161.176L16.339,378.338L233.501,595.5L450.663,378.338z"/>
<path fill="none" stroke="#000000" stroke-miterlimit="10" d="M866.163,509.077l-79.957-79.957l79.957-79.957l79.958,79.957
	L866.163,509.077z M1008.12,589.12L897.163,478.164L786.206,589.12l110.957,110.956L1008.12,589.12z M807.624,466.626L770.5,429.5
	l-37.125,37.126L770.5,503.75L807.624,466.626z M881.624,466.626L844.5,429.5l-37.125,37.126L844.5,503.75L881.624,466.626z
	 M936.871,543.752l-66.184-66.188l-66.187,66.188l66.187,66.185L936.871,543.752z M925.06,460.563l-43.373-43.376l-43.374,43.376
	l43.374,43.373L925.06,460.563z"/>
<path fill="none" stroke="#000000" stroke-miterlimit="10" d="M967.505,259.419l-34.742-34.741l34.742-34.741l34.742,34.741
	L967.505,259.419z M962.467,222.156l-37.78-37.783l-37.781,37.783l37.781,37.78L962.467,222.156z M927.963,201.661l-46.276-46.279
	l-46.277,46.279l46.277,46.276L927.963,201.661z"/>
<path fill="none" stroke="#000000" stroke-miterlimit="10" d="M837.163,149.163l-69.5-69.5l69.5-69.5l69.501,69.5L837.163,149.163z
	 M968.532,137.393l-41.027-41.026l-41.027,41.026l41.027,41.026L968.532,137.393z M911.963,149.661l-46.276-46.279l-46.277,46.279
	l46.277,46.276L911.963,149.661z"/>
<path fill="none" stroke="#000000" stroke-miterlimit="10" d="M837.163,309.077l-79.957-79.957l79.957-79.957l79.958,79.957
	L837.163,309.077z M946.121,301.12l-79.958-79.957l-79.957,79.957l79.957,79.957L946.121,301.12z M978.499,360.502L874.5,256.501
	L770.501,360.502L874.5,464.501L978.499,360.502z M830.654,213.97L791.687,175l-38.968,38.97l38.968,38.967L830.654,213.97z"/>
<path fill="none" stroke="#000000" stroke-miterlimit="10" d="M559.163,149.163l-69.5-69.5l69.5-69.5l69.501,69.5L559.163,149.163z
	 M767.664,79.663l-69.501-69.5l-69.5,69.5l69.5,69.5L767.664,79.663z M802,210l-91-91l-91,91l91,91L802,210z M770.5,360.501L711,301
	l-59.5,59.501l59.5,59.5L770.5,360.501z M852.249,347.252L770.5,265.5l-81.749,81.752l81.749,81.749L852.249,347.252z
	 M772.654,209.97L733.687,171l-38.968,38.97l38.968,38.967L772.654,209.97z M829.374,535.627L770.5,476.75l-58.874,58.877
	L770.5,594.5L829.374,535.627z M829.374,580.627L770.5,521.75l-58.874,58.877L770.5,639.5L829.374,580.627z M851.373,642.627
	L770.5,561.75l-80.873,80.877L770.5,723.5L851.373,642.627z"/>
<path fill="none" stroke="#000000" stroke-miterlimit="10" d="M569.5,524.826l-71.663-71.663L569.5,381.5l71.664,71.663
	L569.5,524.826z M891.68,509.561L659.163,277.045L426.646,509.561l232.517,232.515L891.68,509.561z M641.164,360.163L569.5,288.5
	l-71.663,71.663l71.663,71.663L641.164,360.163z M668.661,378.338L559.5,269.177L450.339,378.338L559.5,487.499L668.661,378.338z
	 M619.999,210L559.5,149.5L499,210l60.5,60.5L619.999,210z M689.372,642.628L569,522.251L448.628,642.628L569,763L689.372,642.628z"
	/>
</svg>
