<?xml version="1.0" encoding="utf-8"?>
<!-- Generator: Adobe Illustrator 16.0.0, SVG Export Plug-In . SVG Version: 6.00 Build 0)  -->
<!DOCTYPE svg PUBLIC "-//W3C//DTD SVG 1.1//EN" "http://www.w3.org/Graphics/SVG/1.1/DTD/svg11.dtd">
<svg version="1.1" id="Layer_1" xmlns="http://www.w3.org/2000/svg" xmlns:xlink="http://www.w3.org/1999/xlink" x="0px" y="0px"
	 width="1400px" height="1050px" viewBox="-60 -13 1400 1050" enable-background="new -60 -13 1400 1050" xml:space="preserve">
<g id="Layer_1_1_">
	<path fill="none" stroke="#3D4766" stroke-miterlimit="10" d="M641.222,274.042l398.539,347.761l-397.62,346.959L243.602,621
		L641.222,274.042z"/>
	<path fill="none" stroke="#3D4766" stroke-miterlimit="10" d="M641.222,357.54l398.539,264.165l-397.62,263.558L243.602,621.097
		L641.222,357.54z"/>
	<path fill="none" stroke="#3D4766" stroke-miterlimit="10" d="M641.222,415.265l398.539,206.375l-397.62,205.897L243.602,621.163
		L641.222,415.265z"/>
	<path fill="none" stroke="#3D4766" stroke-miterlimit="10" d="M641.222,467.578l398.539,154.001l-397.62,153.646L243.602,621.223
		L641.222,467.578z"/>
	<path fill="none" stroke="#3D4766" stroke-miterlimit="10" d="M641.222,512.675l398.539,108.851l-397.62,108.602l-398.539-108.85
		L641.222,512.675z"/>
	<path fill="none" stroke="#3D4766" stroke-miterlimit="10" d="M641.222,554.164l398.539,67.315l-397.62,67.158l-398.539-67.315
		L641.222,554.164z"/>
	<path fill="none" stroke="#3D4766" stroke-miterlimit="10" d="M641.222,590.241l398.539,31.195l-397.62,31.124l-398.539-31.195
		L641.222,590.241z"/>
	<path fill="none" stroke="#3D4766" stroke-miterlimit="10" d="M641.222,610.084l398.539,11.329l-397.62,11.304l-398.539-11.328
		L641.222,610.084z"/>
</g>
<g id="Layer_1_copy">
	<path fill="none" stroke="#3D4766" stroke-miterlimit="10" d="M294.321,621.803l347.761-347.762L989.041,621L641.279,968.762
		L294.321,621.803z"/>
	<path fill="none" stroke="#3D4766" stroke-miterlimit="10" d="M377.819,621.803l264.167-347.762L905.542,621L641.376,968.762
		L377.819,621.803z"/>
	<path fill="none" stroke="#3D4766" stroke-miterlimit="10" d="M435.544,621.803L641.92,274.041l205.897,346.96L641.443,968.762
		L435.544,621.803z"/>
	<path fill="none" stroke="#3D4766" stroke-miterlimit="10" d="M487.857,621.803l154.002-347.762L795.505,621l-154,347.762
		L487.857,621.803z"/>
	<path fill="none" stroke="#3D4766" stroke-miterlimit="10" d="M532.955,621.803l108.851-347.762L750.406,621L641.555,968.762
		L532.955,621.803z"/>
	<path fill="none" stroke="#3D4766" stroke-miterlimit="10" d="M574.444,621.803l67.314-347.762L708.917,621l-67.313,347.762
		L574.444,621.803z"/>
	<path fill="none" stroke="#3D4766" stroke-miterlimit="10" d="M610.521,621.803l31.195-347.762L672.84,621l-31.195,347.762
		L610.521,621.803z"/>
	<path fill="none" stroke="#3D4766" stroke-miterlimit="10" d="M630.364,621.803l11.329-347.762L652.996,621l-11.329,347.762
		L630.364,621.803z"/>
</g>
</svg>
