<?xml version="1.0" encoding="utf-8"?>
<!-- Generator: Adobe Illustrator 16.0.0, SVG Export Plug-In . SVG Version: 6.00 Build 0)  -->
<!DOCTYPE svg PUBLIC "-//W3C//DTD SVG 1.1//EN" "http://www.w3.org/Graphics/SVG/1.1/DTD/svg11.dtd">
<svg version="1.1" id="Layer_3" xmlns="http://www.w3.org/2000/svg" xmlns:xlink="http://www.w3.org/1999/xlink" x="0px" y="0px"
	 width="1400px" height="1050px" viewBox="0 0 1400 1050" enable-background="new 0 0 1400 1050" xml:space="preserve">
<path display="none" fill="none" stroke="#000000" stroke-miterlimit="10" d="M409.719,444.474h580.562 M383.381,490.094h633.238
	 M396.37,467.595h607.26 M428.789,411.443h542.422 M469.314,341.254h461.374 M449.767,375.11h500.468 M493.628,299.14h412.744
	 M405.697,787.311h588.607 M357.717,704.207h684.565 M367.104,720.468h665.792 M376.752,737.178h646.496 M345.825,683.609h708.351
	 M390.536,761.052h618.929 M338.314,670.601h723.372 M484.965,924.606h430.07 M458.677,879.075h482.646 M331.43,658.677h737.14
	 M437.397,842.218h525.207 M419.823,811.779h560.354 M366.927,518.594h666.146 M329.69,583.09h740.621 M325.36,590.589h749.279
	 M321.896,596.589h756.208 M338.35,568.091h723.301 M356.535,536.593h686.931 M347.01,553.092h705.98 M315.835,607.088h768.331
	 M318.913,636.996h762.175 M325.171,647.837h749.657 M315.784,631.576h768.433 M313.28,627.239h773.441 M308.899,619.651h782.203"/>
<path display="none" fill="none" stroke="#000000" stroke-miterlimit="10" d="M635.11,1050v-91.781 M687.383,1050v-91.781
	 M615.281,1050v-91.781 M593.651,1050v-91.781 M680.172,1050v-91.781 M671.159,1050v-91.781 M700,1050v-91.781 M653.135,1050
	v-91.781 M559.402,1050v-91.781 M779.391,1050v-91.781 M882.135,0v280.534 M882.135,1050v-91.781 M855.098,1050v-91.781
	 M820.849,1050v-91.781 M855.098,0v280.534 M799.219,0v280.534 M820.849,0v280.534 M761.365,1050v-91.781 M734.327,1050v-91.781
	 M799.219,1050v-91.781 M727.116,1050v-91.781 M743.34,1050v-91.781 M714.5,1050v-91.781 M1084.577,0v607.803 M1084.577,1050V630.95
	 M1033.969,0l-0.001,520.143 M1033.968,718.611L1033.967,1050 M909.921,305.285V0 M949.616,0v374.043 M993.281,0v449.671
	 M1145.865,0l-0.001,1050 M1221.573,1050V0 M1295.478,1050V0 M993.281,1050V789.082 M1382,1050V0 M779.391,0v280.534
	 M949.616,864.712V1050 M909.921,933.468V1050 M504.578,280.534V0 M504.578,958.219V1050 M532.365,0v280.534 M671.159,0v280.534
	 M559.402,0v280.534 M653.135,0v280.534 M380.532,743.725V1050 M680.172,0v280.534 M615.281,0v280.534 M593.651,0v280.534 M635.11,0
	v280.534 M268.634,0l0.001,1050 M192.927,1050V0 M329.921,656.063V1050 M119.022,1050V0 M32.5,1050V0 M421.219,0v424.558 M464.883,0
	v348.928 M421.219,1050V814.195 M464.883,1050V889.824 M380.532,495.028V0 M329.921,582.688V0 M532.365,958.219V1050 M743.34,0
	v280.534 M714.5,0v280.534 M700,0v280.534 M687.383,0v280.534 M734.327,0v280.534 M727.116,0v280.534 M761.365,0v280.534"/>
<path display="none" fill="none" stroke="#000000" stroke-miterlimit="10" d="M653.135,280.534v677.685 M635.11,280.534v677.685
	 M671.159,280.534v677.685 M559.402,280.534v677.685 M615.281,280.534v677.685 M593.651,280.534v677.685 M680.172,280.534v677.685
	 M779.391,280.534v677.685 M993.281,449.671v339.411 M1084.577,607.802v23.147 M949.616,374.043v490.669 M799.219,280.534v677.685
	 M743.34,280.534v677.685 M734.327,280.534v677.685 M761.365,280.534v677.685 M700,280.534v677.685 M727.116,280.534v677.685
	 M714.5,280.534v677.685 M882.135,280.534v677.685 M687.383,280.534v677.685 M909.921,305.285v628.183 M855.098,280.534v677.685
	 M820.849,280.534v677.685 M1033.968,520.142v198.47 M504.578,280.534v677.685 M532.365,280.534v677.685 M421.219,424.557v389.639
	 M464.883,348.927v540.896 M329.921,582.688v73.375 M380.532,495.028v248.696"/>
<polygon points="503.177,960.724 306.119,619.411 503.177,278.097 897.29,278.097 1094.349,619.411 897.29,960.724 "/>
<rect x="0" y="0" fill="none" stroke="#000000" stroke-miterlimit="10" width="1400" height="1050"/>
</svg>
