<?xml version="1.0" encoding="utf-8"?>
<!-- Generator: Adobe Illustrator 16.0.0, SVG Export Plug-In . SVG Version: 6.00 Build 0)  -->
<!DOCTYPE svg PUBLIC "-//W3C//DTD SVG 1.1//EN" "http://www.w3.org/Graphics/SVG/1.1/DTD/svg11.dtd">
<svg version="1.1" id="Layer_1" xmlns="http://www.w3.org/2000/svg" xmlns:xlink="http://www.w3.org/1999/xlink" x="0px" y="0px"
	 width="1400px" height="1050px" viewBox="-60 -13 1400 1050" enable-background="new -60 -13 1400 1050" xml:space="preserve">
<path id="Layer_1_1_" fill="none" stroke="#000000" stroke-miterlimit="10" d="M558.032,512l83.708-144.987L725.448,512H558.032z"/>
<path id="Layer_2" fill="none" stroke="#000000" stroke-miterlimit="10" d="M805.029,633.085L628.24,914.418L451.449,633.085
	H805.029z"/>
<path id="Layer_3" fill="none" stroke="#000000" stroke-miterlimit="10" d="M73.036,309.01l29.21-50.594l29.211,50.594H73.036z
	 M140.659,374.954l-29.211-50.595l-29.21,50.595H140.659z M257.011,285.828L227.8,235.234l-29.21,50.594H257.011z M221.612,439.229
	l-29.21-50.594l-29.21,50.594H221.612z M269.45,526.855l-29.21-50.598l-29.211,50.598H269.45z M374.058,330.1l-29.21-50.594
	L315.636,330.1H374.058z M221.504,720.144l-29.21-50.598l-29.21,50.598H221.504z M140.659,682.543l-29.211-50.594l-29.21,50.594
	H140.659z M199.08,545.228l-29.21-50.595l-29.21,50.595H199.08z M102.248,885.835l-29.211-50.594l-29.21,50.594H102.248z
	 M250.824,810.426l-29.21-50.598l-29.211,50.598H250.824L250.824,810.426z M352.105,930.72l-29.211-50.594l-29.212,50.594H352.105z
	 M298.661,381.436l-29.211-50.598l-29.21,50.598H298.661z M110.695,483.092l-29.211-50.594l-29.21,50.594H110.695z
	 M1039.761,462.865l-29.209-50.595l-29.209,50.595H1039.761z M965.851,323.767l-29.21-50.594l-29.211,50.594H965.851z
	 M991.929,398.229l-29.21-50.594l-29.211,50.594H991.929z M1188.938,585.832l-29.211-50.595l-29.21,50.595H1188.938z
	 M1086.582,359.604l-29.211-50.595l-29.209,50.595H1086.582L1086.582,359.604z M1145.003,483.804l-29.211-50.594l-29.21,50.594
	H1145.003z M1098.182,562.594L1068.972,512l-29.211,50.594H1098.182z M1115.993,707.167l-29.211-50.597l-29.207,50.598
	L1115.993,707.167L1115.993,707.167z M1066.343,785.129l-29.21-50.594l-29.211,50.594H1066.343z M1156.766,945.435l-29.211-50.598
	l-29.21,50.598H1156.766L1156.766,945.435z M1078.225,852.188l-29.211-50.594l-29.211,50.594H1078.225z M1006.036,885.835
	l-29.211-50.594l-29.211,50.594H1006.036z M1203.424,696.576l-29.21-50.594l-29.211,50.594H1203.424z M1162.782,860.538
	l-29.211-50.598l-29.211,50.598H1162.782z M1221.203,316.986l-29.211-50.594l-29.21,50.594H1221.203z"/>
<path id="Layer_3_1_" fill="none" stroke="#000000" stroke-miterlimit="10" d="M870.627,467.158l-29.209-50.595l-29.209,50.595
	H870.627z M748.524,441.301l-29.21-50.594l-29.211,50.594H748.524z M940.482,522.75l-29.21-50.594l-29.211,50.594H940.482z
	 M783.089,371.612l-29.211-50.595l-29.21,50.595H783.089z M857.851,374.407l-29.211-50.595l-29.209,50.595H857.851L857.851,374.407z
	 M864.838,572.114l-29.211-50.595l-29.21,50.595H864.838z M738.832,597.592l-29.21-50.594l-29.211,50.594H738.832z M682.043,527.276
	l-29.211-50.597l-29.207,50.598L682.043,527.276L682.043,527.276z M512.595,530.531l-29.21-50.593l-29.211,50.593H512.595z
	 M579.12,576.151l-29.211-50.598l-29.21,50.598H579.12L579.12,576.151z M377.11,597.979l-29.211-50.594l-29.211,50.594H377.11z
	 M490.66,362.016l-29.211-50.594l-29.211,50.594H490.66z M575.614,439.477l-29.21-50.594l-29.211,50.594H575.614z M661.727,372.645
	l-29.211-50.598l-29.211,50.598H661.727z M787.53,512l-29.211-50.594L729.109,512H787.53z"/>
<path id="Layer_4" fill="none" stroke="#000000" stroke-miterlimit="10" d="M1019.198,919.402l-376.63-727.079L265.939,919.402
	H1019.198z"/>
<path id="Layer_5" fill="none" stroke="#000000" stroke-miterlimit="10" d="M768.063,868.881L425.846,181.149L83.629,868.881
	H768.063z M1258.132,943.908l-342.22-687.73l-342.218,687.73H1258.132z M1195.092,649.405l-143.478-288.333L908.139,649.405
	H1195.092z M286.744,944.707L143.268,656.374L-0.207,944.707H286.744z"/>
<path id="Layer_6" fill="none" stroke="#000000" stroke-miterlimit="10" d="M889.656,813.732L631.701,315.753L373.746,813.732
	H889.656z M910.758,828.081L652.802,330.102L394.847,828.081H910.758z"/>
<path fill="none" stroke="#000000" stroke-miterlimit="10" d="M479.516,771.602l29.21-50.594l29.211,50.594H479.516z
	 M547.139,837.545l-29.211-50.594l-29.21,50.594H547.139z M663.49,748.42l-29.21-50.594l-29.21,50.594H663.49z M628.092,901.82
	l-29.21-50.594l-29.21,50.594H628.092z M737.652,799.943l-29.21-50.598l-29.211,50.598H737.652z M479.053,708.081l-29.21-50.595
	l-29.211,50.595H479.053z M847.996,733.515l-29.211-50.598l-29.209,50.598H847.996z M741.643,722.052l-29.211-50.594l-29.21,50.594
	H741.643z M667.283,818.315l-29.21-50.595l-29.21,50.595H667.283z M728.74,899.206l-29.211-50.594l-29.211,50.594H728.74z
	 M877.316,823.797l-29.211-50.598l-29.211,50.598H877.316L877.316,823.797z M950.22,727.51l-29.211-50.598l-29.211,50.598H950.22
	L950.22,727.51z M827.855,932.293l-29.211-50.594l-29.212,50.594H827.855z M403.656,759.416l-29.211-50.598l-29.21,50.598H403.656z
	 M517.175,945.684l-29.211-50.594l-29.21,50.594H517.175z"/>
</svg>
