<?xml version="1.0" encoding="utf-8"?>
<!-- Generator: Adobe Illustrator 16.0.0, SVG Export Plug-In . SVG Version: 6.00 Build 0)  -->
<!DOCTYPE svg PUBLIC "-//W3C//DTD SVG 1.1//EN" "http://www.w3.org/Graphics/SVG/1.1/DTD/svg11.dtd">
<svg version="1.1" id="Layer_2" xmlns="http://www.w3.org/2000/svg" xmlns:xlink="http://www.w3.org/1999/xlink" x="0px" y="0px"
	 width="1400px" height="1050px" viewBox="100 -75 1400 1050" enable-background="new 100 -75 1400 1050" xml:space="preserve">
<path fill="none" stroke="#000000" stroke-miterlimit="10" d="M126.124-52.626V88.052 M126.124,222.978v92.761 M136.641,506.323
	V572.1 M126.124,867.167v40.562 M173.451,94.798v322.031 M157.675,371.396v524.527 M157.675-20.017v97.949"/>
<path fill="none" stroke="#000000" stroke-miterlimit="10" d="M196.236,17.714v35.357 M196.236,103.231v8.433 M196.236,229.725
	v16.867 M215.519,361.277v10.12 M208.945,435.488h6.573 M210.258,475.685v12.648 M212.887,517.005v24.457 M212.888,604.145v11.806
	 M188.347,775.054l8.545,10.962 M212.888,798.576v11.331 M231.294,833.52v20.154 M196.891,867.167l10.298,13.211 M202.04,810.472
	v20.238 M214.641,302.247v13.492 M221.212,176.76h1.315 M207.189,140.335v26.985 M208.945,604.145v29.516 M205,696.906v21.926"/>
<path fill="none" stroke="#000000" stroke-miterlimit="10" d="M331.205-60.497v194.086 M337.777,248.277v198.911 M322.002,575.472
	v195.644 M375.901,66.126v742.094 M348.295,722.205v192.27"/>
<path fill="none" stroke="#000000" stroke-miterlimit="10" d="M406.137,39.141v38.791 M415.34,148.768v20.239 M420.599,302.247
	v11.807 M406.137,335.979v15.179 M420.599,470.904v6.747 M406.137,556.921v52.284 M420.599,680.04v28.672 M420.599,808.221v1.687
	 M415.34,895.923v11.806 M446.891,583.062v26.143 M460.037,443.815V459.1"/>
<path fill="none" stroke="#000000" stroke-miterlimit="10" d="M544.081-51.502v174.289 M551.969,212.743v179.91 M560.733,711.994
	v226.014 M501.134-58.249v181.035 M501.134,174.511v778.114 M550.216,652.398v-67.465"/>
<path fill="none" stroke="#000000" stroke-miterlimit="10" d="M582.645,476.986v200.15 M604.556,938.008v-23.614 M599.297,862.669
	V850.3 M599.297,752.475v-10.12 M599.297,637.781v-20.24 M601.05,464.616v-35.981 M586.151,383.657v-38.231 M584.397,236.355
	v-26.986 M577.386,73.311V54.195 M577.386,152.022v-12.369 M600.174,156.521v-8.996 M612.444,606.296v-13.492 M612.444,524.212
	v-10.12 M612.444,325.187v-19.116 M625.153,267.278h1.753"/>
<path fill="none" stroke="#000000" stroke-miterlimit="10" d="M710.607-60.497V99.174 M729.013,166.64v652.175 M762.318,782.835
	v165.292 M753.554,441.004v131.56 M743.913,29.458v168.666 M754.43,301.573v51.725 M770.207-49.253v239.506 M782.477,346.551
	v183.284 M772.836,619.79v35.982"/>
<path fill="none" stroke="#000000" stroke-miterlimit="10" d="M789.488,695.128v172.039 M789.488,40.703v42.729 M794.747,184.631
	v33.733 M805.265,306.071v38.231 M808.771,455.621v23.614 M811.4,555.697v40.479 M811.4,716.491v34.858 M835.063,653.522v40.48
	 M843.828,778.336v17.992 M830.682,533.208v22.489 M830.682,407.271v11.244 M828.929,325.187v29.235 M830.682,203.747v23.613
	 M825.424,28.334v30.36"/>
<path fill="none" stroke="#000000" stroke-miterlimit="10" d="M927.092-52.626V176.76 M932.351,283.582v161.92 M937.609,626.536
	v98.95 M930.598,518.59v48.351 M961.273,29.458v205.773 M972.668,360.044v213.644 M963.903,650.15v130.436 M999.838,80.059v870.317
	 M984.062,280.208v11.245 M984.938,56.445v15.742"/>
<path fill="none" stroke="#000000" stroke-miterlimit="10" d="M1023.502-20.017V5.845 M1019.996,64.316v28.111 M1019.119,155.396
	v20.24 M1019.119,268.964v26.986 M1019.119,392.653v25.862 M1055.055,103.671v16.867 M1027.884,587.182v37.106 M1025.255,816.566
	v37.107 M1023.502,735.608v17.99 M1039.278,685.008v8.995 M1044.536,525.338v14.617 M1043.66,464.616v14.619 M1039.278,304.946
	v46.103 M1042.784,223.987v13.493"/>
<path fill="none" stroke="#000000" stroke-miterlimit="10" d="M1141.823-58.249v91.081 M1146.206,146.4v338.457 M1137.442,617.541
	v279.985 M1183.017-2.026v105.697 M1181.264,379.159v219.267 M1182.14,864.918v85.458 M1209.31,705.248v98.951 M1217.198,81.183
	v594.829"/>
<path fill="none" stroke="#000000" stroke-miterlimit="10" d="M1248.751,176.76v48.351 M1235.604,254.346v46.102 M1236.48,389.28
	v65.217 M1235.604,532.084v58.471 M1236.48,687.257v46.103 M1237.357,816.566v12.369 M1254.886,676.012v39.355 M1254.886,761.47
	v21.365 M1254.886,853.674v28.111 M1261.021,532.084v46.103 M1267.156,434.257v13.493"/>
<path fill="none" stroke="#000000" stroke-miterlimit="10" d="M1349.543-59.373V57.569 M1353.926,118.29v133.808 M1355.678,409.519
	v155.173 M1358.308,635.532v169.791 M1365.319,872.789v83.209 M1397.748,736.732v64.093 M1398.625,615.292v48.352 M1404.76,501.724
	v39.355 M1404.76,292.578v100.075 M1405.637,126.16v50.6 M1409.143,0.223v46.102 M1392.489,58.694V439.88 M1430.177,409.519v242.879
	 M1440.695,809.82v60.72"/>
<path fill="none" stroke="#000000" stroke-miterlimit="10" d="M1466.111,752.475v46.102 M1474.876,694.003v29.235 M1473.123,623.162
	v30.36 M1470.494,524.212v40.48 M1468.741,470.239v23.613 M1460.854,344.302v26.986 M1454.717,293.702v16.867 M1466.111,116.04
	v34.857 M1468.741,74.436v7.871 M1477.506,53.071v20.24 M1474.876,239.729v57.346"/>
</svg>
