<?xml version="1.0" encoding="utf-8"?>
<!-- Generator: Adobe Illustrator 16.0.0, SVG Export Plug-In . SVG Version: 6.00 Build 0)  -->
<!DOCTYPE svg PUBLIC "-//W3C//DTD SVG 1.1//EN" "http://www.w3.org/Graphics/SVG/1.1/DTD/svg11.dtd">
<svg version="1.1" id="Layer_1_copy" xmlns="http://www.w3.org/2000/svg" xmlns:xlink="http://www.w3.org/1999/xlink" x="0px"
	 y="0px" width="1024px" height="768px" viewBox="0 0 1024 768" enable-background="new 0 0 1024 768" xml:space="preserve">
<path fill="none" stroke="#000000" stroke-miterlimit="10" d="M737.5,609.5v64h-64v-64H737.5z M737.5,546v63.5h64V546 M833.5,577
	v-63.5h-64V577 M768.5,609.5v64h64v-64H768.5z M673.5,480.5v64h64v-64H673.5z M704.5,641v63.5h64V641 M736.5,545.5v64h64v-64H736.5z
	"/>
<path fill="none" stroke="#000000" stroke-miterlimit="10" d="M418.956,224.544l126.499,0.411l-0.412,126.999l-126.5-0.411
	 M257.5,321v63.5h64V321 M448,415.5h64.5V352 M417.5,350.5 M545.5,256.5"/>
<path fill="none" stroke="#000000" stroke-miterlimit="10" d="M928.5,418v63.5H864 M737.5,256v-64 M705,286.5h64 M802.5,288v-64
	 M738.5,384v64 M833,448.5h64.5V385 M864.5,417.5 M832,736.5h63.5V672"/>
<path fill="none" stroke="#000000" stroke-miterlimit="10" d="M289,608.5H161.5v-128H289 M384.5,608.5h-64v64h64V608.5z M159,546.5
	h64 M257.5,512.5v64h64v-64H257.5z M256.5,608.5v64h64v-64H256.5z M545.5,703V575.5h-129V703 M418.5,672.5 M128.5,639v64 M127.5,608
	v-64"/>
<path fill="none" stroke="#000000" stroke-miterlimit="10" d="M255.5,159.5v64h-64v-64H255.5z M95.5,63.5v97h96v-97H95.5z M128,33.5
	H64.5V98 M159,191.5h64.5V128"/>
<path fill="none" stroke="#000000" stroke-miterlimit="10" d="M706.5,415.5v224h-224v-224H706.5z M320.5,256.5v319h318v-319H320.5z
	 M511.5,383.5v128h128v-128H511.5z M577.5,480.5h-128v128h128V480.5z"/>
<path fill="none" stroke="#000000" stroke-miterlimit="10" d="M735.5,127V63.5h64V127 M672,32.5h-64.5V96 M671.5,95.5 M639.5,128
	V64.5h-64V128 M671.5,161V97.5h-64V161"/>
</svg>
