<?xml version="1.0" encoding="utf-8"?>
<!-- Generator: Adobe Illustrator 16.0.0, SVG Export Plug-In . SVG Version: 6.00 Build 0)  -->
<!DOCTYPE svg PUBLIC "-//W3C//DTD SVG 1.1//EN" "http://www.w3.org/Graphics/SVG/1.1/DTD/svg11.dtd">
<svg version="1.1" id="Layer_1" xmlns="http://www.w3.org/2000/svg" xmlns:xlink="http://www.w3.org/1999/xlink" x="0px" y="0px"
	 width="1024px" height="768px" viewBox="0 0 1024 768" enable-background="new 0 0 1024 768" xml:space="preserve">
<path fill="none" stroke="#000000" stroke-miterlimit="10" d="M97.5,114L49.417,84.5L97.5,55l48.083,29.5L97.5,114z M49.5,85v683
	 M97.5,114v654 M145.5,85v683 M72.5,99v595 M133.5,92v596 M108.5,107v369 M117.5,397v369 M62.5,255v511"/>
<path fill="none" stroke="#000000" stroke-miterlimit="10" d="M192.951,92.496l-61.533-37.752l61.533-37.752l61.533,37.752
	L192.951,92.496z M131.5,55v713 M254.5,55v711 M192.5,92v664 M145.5,63v314 M177.5,83v355 M208.5,83v288 M241.5,63v413 M162.5,768
	V314 M217.5,766V342"/>
<path fill="none" stroke="#000000" stroke-miterlimit="10" d="M276.951,198.496l-61.533-37.751l61.533-37.752l61.533,37.752
	L276.951,198.496z M215.5,161v605 M276.5,198v568 M338.5,161v605 M246.5,179v386 M239.5,476v290 M262.5,465v301 M322.5,171v481
	 M289.5,190v515 M310.5,766V493"/>
<path fill="none" stroke="#000000" stroke-miterlimit="10" d="M479.25,325.896l-114.832-70.451l114.832-70.452l114.833,70.452
	L479.25,325.896z M364.5,255v513 M479.5,326v442 M594.5,255v511 M388.5,270v312 M455.5,311v341 M408.5,766V511 M441.5,766V384
	 M503.5,311v115 M542.5,287v329 M578.5,270v252 M511.5,662V522 M560.5,530v217 M522.5,766V503"/>
<path fill="none" stroke="#000000" stroke-miterlimit="10" d="M618.5,162v604 M741.484,161.744l-61.533-37.752l-61.533,37.752
	l61.533,37.751L741.484,161.744z M679.5,199v569 M741.5,162v606 M633.5,171v255 M664.5,190v375 M695.5,190v392 M732.5,171v560
	 M710.5,768V336 M648.5,768V344"/>
<path fill="none" stroke="#000000" stroke-miterlimit="10" d="M781.951,107.496l-61.533-37.752l61.533-37.752l61.533,37.752
	L781.951,107.496z M720.5,70v698 M781.5,107v659 M750.5,88v403 M813.5,88v431 M759.5,768V419 M800.5,766V594 M827.5,766V372
	 M792.5,101v328 M827.5,80v82"/>
<path fill="none" stroke="#000000" stroke-miterlimit="10" d="M904.951,107.496l-61.533-37.751l61.533-37.752l61.533,37.752
	L904.951,107.496z M843.5,70v696 M904.5,107v659 M966.5,70v696 M857.5,79v369 M891.5,99v595 M874.5,768V323 M918.5,99v504 M951.5,79
	v602 M932.5,768V384"/>
</svg>
