<?xml version="1.0" encoding="utf-8"?>
<!-- Generator: Adobe Illustrator 16.0.0, SVG Export Plug-In . SVG Version: 6.00 Build 0)  -->
<!DOCTYPE svg PUBLIC "-//W3C//DTD SVG 1.1//EN" "http://www.w3.org/Graphics/SVG/1.1/DTD/svg11.dtd">
<svg version="1.1" id="Layer_1" xmlns="http://www.w3.org/2000/svg" xmlns:xlink="http://www.w3.org/1999/xlink" x="0px" y="0px"
	 width="1400px" height="1050px" viewBox="0 0 1400 1050" enable-background="new 0 0 1400 1050" xml:space="preserve">
<path fill="none" stroke="#010101" stroke-miterlimit="10" d="M699.649,619.235L504.02,280.394 M699.649,619.6H308.389
	 M308.988,620.064l195.63-338.841 M699.649,619.429L549.597,359.529 M699.649,619.708H399.543 M400.003,620.064l150.054-259.898
	 M458.441,359.529l150.053,259.9 M608.494,619.709H308.389 M308.848,620.064l150.054-259.898 M654.072,540.293L504.02,280.394
	 M654.072,540.572H353.967 M354.426,540.93L504.479,281.03 M552.645,619.547L430.365,407.753 M552.645,619.774H308.086
	 M308.461,620.064L430.74,408.271 M701,620.455L578.721,408.662 M701,620.684H456.441"/>
<path fill="none" stroke="#010101" stroke-miterlimit="10" d="M503.322,959.956l195.63-338.842 M307.691,620.75h391.261
	 M503.921,959.126l-195.63-338.841 M548.899,880.82l150.053-259.899 M398.846,620.642h300.106 M549.359,880.184L399.306,620.285
	 M457.744,880.82l150.053-259.9 M307.691,620.641h300.105 M458.204,880.184L308.15,620.285 M503.322,959.956l150.053-259.899
	 M503.781,959.319L353.729,699.42 M307.389,620.575h244.559 M307.764,620.285l122.279,211.793 M578.023,831.688l122.279-211.793
	 M455.744,619.666h244.559 M456.119,619.376L578.398,831.17"/>
<path fill="none" stroke="#010101" stroke-miterlimit="10" d="M895.106,958.816l-195.63-338.842 M895.106,959.182H503.846
	 M504.445,959.646l195.63-338.842 M895.106,959.01L745.054,699.111 M895.106,959.289H595 M595.46,959.646l150.054-259.898
	 M803.951,959.012l-150.053-259.9 M803.951,959.291H503.846 M504.305,959.646l150.054-259.898 M849.529,879.875l-150.053-259.9
	 M849.529,880.154H549.424 M549.883,880.512l150.053-259.9 M748.102,959.129L625.822,747.334 M748.102,959.355H503.543
	 M503.918,959.646l122.279-211.793 M896.457,960.037L774.178,748.243 M896.457,960.266H651.898"/>
<path fill="none" stroke="#010101" stroke-miterlimit="10" d="M894.321,959.956l195.631-338.842 M698.69,620.75h391.262
	 M894.921,959.126L699.29,620.285 M939.899,880.82l150.053-259.899 M789.846,620.642h300.106 M940.358,880.184L790.306,620.285
	 M848.744,880.82l150.053-259.9 M698.69,620.641h300.106 M849.204,880.184L699.15,620.285 M894.321,959.956l150.053-259.899
	 M744.269,699.777h300.105 M894.781,959.319L744.728,699.42 M922.096,911.732l122.278-211.794 M1044.374,699.711 M799.816,699.711
	 M800.19,699.42 M922.47,911.214 M848.744,620.575h244.558"/>
<path fill="none" stroke="#010101" stroke-miterlimit="10" d="M1090.302,619.545l-195.63-338.842 M1090.302,619.909H699.041
	 M699.64,620.374l195.63-338.841 M1090.302,619.738L940.249,359.839 M1090.302,620.018H790.195 M790.655,620.374l150.054-259.898
	 M999.146,619.739l-150.053-259.9 M999.146,620.019H699.041 M849.554,360.476L699.5,620.374 M1044.725,540.603L894.672,280.703
	 M1044.725,540.882H744.619 M745.078,541.239L895.131,281.34 M922.445,328.927l122.279,211.794 M1044.725,540.948 M800.166,540.948
	 M800.541,541.239 M922.82,329.445 M1093.652,620.084H849.094"/>
<path fill="none" stroke="#010101" stroke-miterlimit="10" d="M699.477,619.376l195.63-338.842 M503.846,280.169h391.261
	 M700.075,618.546l-195.63-338.841 M745.054,540.24l150.053-259.899 M595,280.062h300.106 M745.514,539.604L595.46,279.705
	 M803.951,280.34 M653.898,540.24 M503.846,280.061h300.105 M654.358,539.604L504.305,279.705 M699.477,619.376l150.053-259.9
	 M849.529,359.197 M549.424,359.197 M699.936,618.739L549.883,358.84 M625.822,492.017l122.279-211.794 M503.543,279.995h244.559
	 M503.918,279.705l122.279,211.793 M774.178,491.108l122.279-211.794 M651.898,279.086h244.559 M774.553,490.589L652.273,278.796"/>
</svg>
