<?xml version="1.0" encoding="utf-8"?>
<!-- Generator: Adobe Illustrator 16.0.0, SVG Export Plug-In . SVG Version: 6.00 Build 0)  -->
<!DOCTYPE svg PUBLIC "-//W3C//DTD SVG 1.1//EN" "http://www.w3.org/Graphics/SVG/1.1/DTD/svg11.dtd">
<svg version="1.1" id="Layer_3" xmlns="http://www.w3.org/2000/svg" xmlns:xlink="http://www.w3.org/1999/xlink" x="0px" y="0px"
	 width="1400px" height="1050px" viewBox="-60 -165 1400 1050" enable-background="new -60 -165 1400 1050" xml:space="preserve">
<path fill="none" stroke="#000000" stroke-miterlimit="10" d="M-278.917,274.002L-49.52-164.721 M-278.917,488.507l398.729-638.822
	 M-278.917,710.218L288.396-159.28 M-141.355,915.026l470.14-1107.001 M-106.127,882.334L561.97-143.109 M127.294,905.812
	L638.635-182.759 M198.112,864.549L880.176-164.344 M433.082,883.336l572.822-1057.493 M537.494,894.042l558.69-1065.032
	 M675.462,890.265L1240.369-159.28 M805.491,882.334L1406.688-159.28 M1006.103,910.875l489.227-1098.697 M997.343,882.334
	l499.688-814.183 M1203.166,857.066l332.915-576.803 M1351.545,871.421l161.435-340.328"/>
<path fill="none" stroke="#000000" stroke-miterlimit="10" d="M-354.566,854.926L222.63-200.549 M-309.786,854.926L322.771-168.578
	 M-19.48,396.473L224.465-70.7"/>
<path fill="none" stroke="#000000" stroke-miterlimit="10" d="M-171.722,875.154L355.41-183.766 M-152.199,884.453L414.122-183.766
	 M73.112,450.57L336.33-5.472"/>
<path fill="none" stroke="#000000" stroke-miterlimit="10" d="M-34.594,884.453L566.603-177.256 M10.186,884.453L555.224-157.161
	 M254.418,417.703L563.709-30.044"/>
<path fill="none" stroke="#000000" stroke-miterlimit="10" d="M174.737,891.423l573.119-1057.83 M207.447,884.453L832.649-157.161
	 M497.753,425.998l251.292-462.93"/>
<path fill="none" stroke="#000000" stroke-miterlimit="10" d="M359.927,884.453L961.125-157.161 M404.708,884.453L995.342-177.256
	 M646.684,482.4l193.87-528.707"/>
<path fill="none" stroke="#000000" stroke-miterlimit="10" d="M557.189,884.453l601.196-1041.614 M632.181,889.085L1244.652-152.53
	 M892.274,425.998l296.135-451.359"/>
<path fill="none" stroke="#000000" stroke-miterlimit="10" d="M754.449,884.453l601.197-1041.614 M822.591,888.503l578.097-1054.955
	 M1089.537,425.998l263.217-456.041"/>
<path fill="none" stroke="#000000" stroke-miterlimit="10" d="M960.268,889.395l557.869-1046.556 M996.489,884.453l543.342-941.374
	 M1286.796,425.998L1476.922-55.74"/>
</svg>
