<?xml version="1.0" encoding="utf-8"?>
<!-- Generator: Adobe Illustrator 16.0.0, SVG Export Plug-In . SVG Version: 6.00 Build 0)  -->
<!DOCTYPE svg PUBLIC "-//W3C//DTD SVG 1.1//EN" "http://www.w3.org/Graphics/SVG/1.1/DTD/svg11.dtd">
<svg version="1.1" id="Layer_3" xmlns="http://www.w3.org/2000/svg" xmlns:xlink="http://www.w3.org/1999/xlink" x="0px" y="0px"
	 width="1400px" height="1050px" viewBox="0 0 1400 1050" enable-background="new 0 0 1400 1050" xml:space="preserve">
<path fill="none" stroke="#000000" stroke-miterlimit="10" d="M919.169-4.446l-164.533,284.98 M883.171-4.446l-164.533,284.98
	 M1060.164-4.446l-164.533,284.98 M746.678-4.446l-164.533,284.98 M965.667-4.446l-164.533,284.98 M1038.075-4.446l-164.533,284.98
	 M1049.508-4.447L884.974,280.534 M840.132,280.534l164.533-284.98 M1027.164-4.446l-164.533,284.98 M661.641,280.534L826.174-4.446
	 M754.636,280.534 M433.873,836.112 M840.132,280.534 M476.621,910.154 M679.182-4.446l-164.533,284.98 M862.631,280.534
	 M487.87,929.639 M801.134,280.534 M457.122,876.381 M514.648,280.534 M313.879,628.277 M718.638,280.534 M415.874,804.937
	 M582.145,280.534 M347.627,686.73 M661.641,280.534 M387.375,755.576 M673.504,1052.094l54.2-93.876 M807.199,958.218
	 M1047.045,542.792 M1071.597-4.447l-170.25,294.881 M869.993,1052.094L1479.986-4.447 M753,1052.094l54.199-93.876
	 M873.542,280.534 M493.326,939.089 M1596.98-4.447L986.987,1052.094 M874.695,958.218 M1080.793,601.245 M1262.974,1052.094
	L1872.967-4.447 M1719.975-4.447l-609.993,1056.541 M727.704,958.218 M1007.298,473.947 M1144.005-4.447L937.551,353.142
	 M1190.503-4.447L960.8,393.411 M1105.007-4.447L918.052,319.369 M820.496,1052.094l54.199-93.876 M1082.508-4.447L906.803,299.884
	 M1362.993-4.447l-315.948,547.239 M1430.489-4.447l-349.696,605.692 M978.799,424.586L1226.501-4.447 M1283.498-4.447
	l-276.2,478.394 M216.18,1052.095l171.195-296.519 M526.713,958.218l-54.199,93.876 M504.37,958.218l-54.2,93.877 M515.802,958.218
	l-54.199,93.876 M499.042,948.989l-59.528,103.105 M493.326,939.089l-65.244,113.006 M487.87,929.639l-70.7,122.456
	 M549.212,958.218l-54.199,93.876 M670.707,958.218 M978.799,424.586 M670.707,958.218l-54.199,93.876 M588.21,958.218
	l-54.199,93.876 M634.708,958.218l-54.199,93.876 M476.621,910.154l-81.949,141.94 M629.686-4.446L19.691,1052.095 M389.697-4.446
	l-609.994,1056.541 M313.879,628.277l-244.69,423.817 M236.705-4.446l-609.994,1056.541 M113.711-4.446l-609.994,1056.541
	 M433.873,836.112l-124.698,215.982 M457.122,876.381l-101.449,175.714 M960.8,393.411 M634.708,958.218 M415.874,804.937
	l-142.697,247.158 M347.627,686.73l-210.942,365.364 M-97.302,1052.095L512.691-4.446 M918.052,319.369 M549.212,958.218
	 M906.803,299.884 M526.713,958.218 M895.631,280.534 M504.37,958.218 M901.347,290.435 M515.802,958.218 M884.974,280.534
	 M499.042,948.989 M937.551,353.142 M588.21,958.218 M978.799,424.586 M960.8,393.411"/>
<path fill="none" stroke="#000000" stroke-miterlimit="10" d="M433.873,836.112l320.763-555.578 M476.621,910.154l363.511-629.62
	 M487.87,929.639l374.761-649.104 M457.122,876.381l344.012-595.847 M313.879,628.277l200.77-347.743 M718.638,280.534
	L415.874,804.937 M582.145,280.534L347.627,686.73 M387.375,755.576l274.266-475.042 M1047.045,542.792L807.199,958.218
	 M493.326,939.089l380.216-658.555 M1080.793,601.245L874.695,958.218 M1007.298,473.947L727.704,958.218 M978.799,424.586
	L670.707,958.218 M634.708,958.218L960.8,393.411 M549.212,958.218l368.839-638.849 M526.713,958.218l380.089-658.334
	 M504.37,958.218l391.261-677.684 M515.802,958.218l385.544-667.783 M499.042,948.989l385.932-668.455 M588.21,958.218
	l349.34-605.076"/>
<path fill="none" stroke="#000000" stroke-miterlimit="10" d="M760.178,1052.094l-54.199-93.876 M842.674,1052.094l-54.199-93.876
	 M741.977,958.218l54.199,93.876 M904.17,1052.094l-54.199-93.876 M827.473,958.218l54.199,93.876 M788.475,958.218
	 M450.792,373.334 M741.977,958.218 M427.543,413.603 M648.98,958.218l54.199,93.876 M705.979,958.218 M409.544,444.778
	 M860.883,958.218l54.199,93.876 M1067.51,1052.095l-113.039-195.79 M931.222,896.573l89.79,155.521 M1103.508,1052.095
	L972.47,825.129 M982.013,1052.095l-70.291-121.747 M948.603,1052.095l-54.2-93.877 M926.514,1052.095l-54.2-93.877
	 M900.473,949.831l59.042,102.264 M937.171,1052.095l-54.2-93.877 M827.473,958.218 M470.291,339.561 M894.402,958.218
	 M503.756,281.598 M986.987-4.446l609.993,1056.541 M746.999-4.446l609.994,1056.541 M863.993-4.446l609.993,1056.541
	 M1000.968,775.769 M715.044,280.534 M1040.716,706.923 M794.54,280.534 M1074.464,648.47 M862.036,280.534 M1749.973,1052.095
	L1139.979-4.446 M13.691-4.447l327.606,567.431 M1262.973-4.446l609.994,1056.541 M860.883,958.218 M486.996,310.627
	 M872.313,958.218 M492.712,300.727 M882.971,958.218 M498.04,291.498 M972.47,825.129 M658.047,280.534 M1160.505,1052.095
	l-159.537-276.326 M849.971,958.218 M481.54,320.077 M900.473,949.831 M514.054,280.534 M954.471,856.305 M622.049,280.534
	 M931.222,896.573 M575.551,280.534 M911.722,930.348 M536.553,280.534 M450.792,373.334L232.68-4.447 M305.088-4.447
	l181.908,315.074 M409.544,444.778L150.184-4.447 M271.678-4.447l198.613,344.008 M186.182-4.447l241.361,418.05 M113.711,1052.094
	L-496.282-4.447 M349.521-4.446l164.533,284.98 M503.756,281.598L338.609-4.446 M498.04,291.498L327.177-4.447 M316.521-4.446
	l176.191,305.173 M372.02-4.446l164.533,284.98 M506.691,1052.094L-103.302-4.447 M-220.296-4.447l609.993,1056.541 M-53.805-4.447
	l609.993,1056.541 M-343.29-4.447l609.993,1056.541 M569.485,958.218 M341.297,562.984 M381.045,494.14L93.187-4.447
	 M648.98,958.218 M381.045,494.14 M569.485,958.218l54.199,93.876 M294.177-4.447L481.54,320.077 M715.044,280.534L550.511-4.446
	 M622.049,280.534L457.516-4.446 M493.514-4.446l164.533,284.98 M630.007-4.446l164.533,284.98 M1074.464,648.47l233.032,403.625
	 M697.503-4.446l164.533,284.98 M1040.716,706.923L1240,1052.095 M411.018-4.446l164.533,284.98"/>
<path fill="none" stroke="#000000" stroke-miterlimit="10" d="M450.792,373.334l337.683,584.883 M741.977,958.218L427.543,413.603
	 M409.544,444.778l296.435,513.439 M470.291,339.561l357.182,618.657 M894.402,958.218l-390.646-676.62 M715.044,280.534
	l285.924,495.234 M794.54,280.534l246.176,426.389 M1074.464,648.47L862.036,280.534 M860.883,958.218L486.996,310.627
	 M492.712,300.727l379.602,657.491 M498.04,291.498l384.931,666.72 M658.047,280.534L972.47,825.129 M481.54,320.077
	l368.431,638.141 M514.054,280.534l386.419,669.297 M622.049,280.534l332.422,575.771 M931.222,896.573L575.551,280.534
	 M911.722,930.348L536.553,280.534 M341.297,562.984l228.188,395.233 M381.045,494.14L648.98,958.218"/>
<path fill="none" stroke="#000000" stroke-miterlimit="10" d="M930.688,341.253H1400 M906.373,299.14H1400 M950.234,375.11H1400
	 M971.211,411.443H1400 M990.281,444.474H1400 M1003.63,467.595H1400 M990.281,444.474 M409.719,444.474 M1016.62,490.094
	 M383.381,490.094 M1003.63,467.595 M396.371,467.595 M971.211,411.443 M428.79,411.443 M930.688,341.253 M469.314,341.253
	 M950.234,375.11 M449.767,375.11 M906.373,299.14 M493.628,299.14 M1074.64,590.588H1400 M1084.166,607.087H1400 M1078.104,596.588
	H1400 M1091.102,619.651H1400 M1086.721,627.239H1400 M1016.62,490.094H1400 M1084.217,631.576H1400 M1070.311,583.089H1400
	 M1033.073,518.593H1400 M1043.466,536.592H1400 M1052.991,553.091H1400 M1061.65,568.09H1400 M994.304,787.311 M405.697,787.311
	 M1042.283,704.207 M357.717,704.207 M1032.896,720.467 M367.104,720.467 M1023.248,737.178 M376.752,737.178 M1054.176,683.609
	 M345.825,683.609 M1009.465,761.051 M390.536,761.051 M1061.687,670.601 M338.314,670.601 M915.036,924.606 M484.965,924.606
	 M941.324,879.075 M458.677,879.075 M1081.088,636.996H1400 M1068.57,658.677 M331.43,658.677 M962.604,842.217 M437.397,842.217
	 M980.177,811.779 M419.824,811.779 M1033.073,518.593 M366.927,518.593 M1070.311,583.089 M329.69,583.089 M1074.64,590.588
	 M325.36,590.588 M1078.104,596.588 M321.896,596.588 M1061.65,568.09 M338.35,568.09 M1043.466,536.592 M356.535,536.592
	 M1052.991,553.091 M347.01,553.091 M1084.166,607.087 M315.835,607.087 M1081.088,636.996 M318.913,636.996 M1074.829,647.836
	 M325.171,647.836 M1084.217,631.576 M315.784,631.576 M1086.721,627.239 M313.28,627.239 M1091.102,619.651 M308.899,619.651
	 M383.381,490.094H0 M325.171,647.836H0 M449.767,375.11H0 M331.43,658.677H0 M318.913,636.996H0 M338.314,670.601H0
	 M1074.829,647.836H1400 M428.79,411.443H0 M493.628,299.14H0 M376.752,737.178H0 M345.825,683.609H0 M469.314,341.253H0
	 M357.717,704.207H0 M367.104,720.467H0 M338.35,568.09H0 M329.69,583.089H0 M325.36,590.588H0 M347.01,553.091H0 M321.896,596.588
	H0 M356.535,536.592H0 M313.28,627.239H0 M315.784,631.576H0 M409.719,444.474H0 M315.835,607.087H0 M396.371,467.595H0
	 M308.899,619.651H0 M458.677,879.075H0 M1400,969.052H0 M1400,248.142H0 M962.604,842.217H1400 M1009.465,761.051H1400
	 M941.324,879.075H1400 M1400,1021.087H0 M915.036,924.606H1400 M980.177,811.779H1400 M1061.687,670.601H1400 M1054.176,683.609
	H1400 M1068.57,658.677H1400 M1023.248,737.178H1400 M1042.283,704.207H1400 M1032.896,720.467H1400 M994.304,787.311H1400
	 M0,123.648h1400 M1400,185.145H0 M390.536,761.051H0 M419.824,811.779H0 M405.697,787.311H0 M1400,51.651H0 M437.397,842.217H0
	 M484.965,924.606H0 M366.927,518.593H0 M1070.311,583.089 M1074.64,590.588"/>
<path fill="none" stroke="#000000" stroke-miterlimit="10" d="M409.719,444.474h580.562 M383.381,490.094h633.239 M396.371,467.595
	h607.259 M428.79,411.443h542.421 M469.314,341.253h461.374 M449.767,375.11h500.468 M493.628,299.14h412.745 M405.697,787.311
	h588.607 M357.717,704.207h684.566 M367.104,720.467h665.792 M376.752,737.178h646.496 M345.825,683.609h708.351 M390.536,761.051
	h618.929 M338.314,670.601h723.372 M484.965,924.606h430.071 M458.677,879.075h482.647 M331.43,658.677h737.14 M437.397,842.217
	h525.207 M419.824,811.779h560.353 M366.927,518.593h666.146 M329.69,583.089h740.621 M325.36,590.588h749.279 M321.896,596.588
	h756.208 M338.35,568.09h723.301 M356.535,536.592h686.931 M347.01,553.091h705.981 M315.835,607.087h768.331 M318.913,636.996
	h762.175 M325.171,647.836h749.658 M315.784,631.576h768.433 M313.28,627.239h773.441 M308.899,619.651h782.203"/>
<path fill="none" stroke="#000000" stroke-miterlimit="10" d="M635.11,1050v-91.782 M687.383,1050v-91.782 M615.282,1050v-91.782
	 M593.651,1050v-91.782 M680.172,1050v-91.782 M671.16,1050v-91.782 M700,1050v-91.782 M653.135,1050v-91.782 M653.135,958.218
	 M653.135,280.534 M635.11,958.218 M635.11,280.534 M671.16,958.218 M671.16,280.534 M559.402,958.218 M559.402,280.534
	 M559.402,1050v-91.782 M615.282,958.218 M615.282,280.534 M593.651,958.218 M593.651,280.534 M779.391,1050v-91.782 M882.135,0
	v280.534 M882.135,1050v-91.782 M855.098,1050v-91.782 M820.849,1050v-91.782 M855.098,0v280.534 M799.219,0v280.534 M820.849,0
	v280.534 M761.365,1050v-91.782 M734.328,1050v-91.782 M799.219,1050v-91.782 M727.117,1050v-91.782 M743.34,1050v-91.782
	 M714.5,1050v-91.782 M680.172,958.218 M680.172,280.534 M779.391,958.218 M779.391,280.534 M1084.578,0v607.802 M1084.578,1050
	V630.95 M1033.969,0l-0.001,520.142 M1033.968,718.611L1033.967,1050 M909.921,305.285V0 M949.617,0v374.042 M993.281,0v449.67
	 M1145.866,0l-0.001,1050 M1221.573,1050V0 M1295.478,1050V0 M993.281,1050V789.082 M1382,1050V0 M993.281,789.082 M993.281,449.67
	 M1084.578,630.95 M1084.578,607.802 M949.617,864.711 M949.617,374.042 M799.219,958.218 M799.219,280.534 M743.34,958.218
	 M743.34,280.534 M734.328,958.218 M734.328,280.534 M761.365,958.218 M761.365,280.534 M700,958.218 M700,280.534 M727.117,958.218
	 M727.117,280.534 M779.391,0v280.534 M714.5,958.218 M714.5,280.534 M949.617,864.711V1050 M909.921,933.467V1050 M882.135,958.218
	 M882.135,280.534 M687.383,958.218 M687.383,280.534 M909.921,933.467 M909.921,305.285 M855.098,958.218 M855.098,280.534
	 M820.849,958.218 M820.849,280.534 M1033.968,718.611 M1033.968,520.142 M504.579,958.218 M504.579,280.534 M532.365,958.218
	 M532.365,280.534 M504.579,280.534V0 M421.219,814.195 M421.219,424.557 M504.579,958.218V1050 M532.365,0v280.534
	 M464.883,889.824 M464.883,348.927 M671.16,0v280.534 M559.402,0v280.534 M653.135,0v280.534 M380.532,743.725l0,306.275
	 M680.172,0v280.534 M615.282,0v280.534 M593.651,0v280.534 M635.11,0v280.534 M268.634,0l0.001,1050 M192.927,1050V0
	 M329.921,656.063V1050 M119.022,1050V0 M329.921,656.063 M329.921,582.688 M32.5,1050V0 M421.219,0v424.557 M464.883,0v348.927
	 M421.219,1050V814.195 M380.532,743.725 M380.532,495.028 M464.883,1050V889.824 M380.532,495.028l0-495.028 M329.921,582.688V0
	 M532.365,958.218V1050 M743.34,0v280.534 M714.5,0v280.534 M700,0v280.534 M687.383,0v280.534 M734.328,0v280.534 M727.117,0
	v280.534 M761.365,0v280.534 M820.849,280.534 M855.098,280.534"/>
<path fill="none" stroke="#000000" stroke-miterlimit="10" d="M653.135,280.534v677.684 M635.11,280.534v677.684 M671.16,280.534
	v677.684 M559.402,280.534v677.684 M615.282,280.534v677.684 M593.651,280.534v677.684 M680.172,280.534v677.684 M779.391,280.534
	v677.684 M993.281,449.67v339.412 M1084.578,607.802v23.148 M949.617,374.042v490.669 M799.219,280.534v677.684 M743.34,280.534
	v677.684 M734.328,280.534v677.684 M761.365,280.534v677.684 M700,280.534v677.684 M727.117,280.534v677.684 M714.5,280.534v677.684
	 M882.135,280.534v677.684 M687.383,280.534v677.684 M909.921,305.285v628.182 M855.098,280.534v677.684 M820.849,280.534v677.684
	 M1033.968,520.142v198.47 M504.579,280.534v677.684 M532.365,280.534v677.684 M421.219,424.557v389.639 M464.883,348.927v540.897
	 M329.921,582.688v73.375 M380.532,495.028l0,248.696"/>
</svg>
