<?xml version="1.0" encoding="utf-8"?>
<!-- Generator: Adobe Illustrator 16.0.0, SVG Export Plug-In . SVG Version: 6.00 Build 0)  -->
<!DOCTYPE svg PUBLIC "-//W3C//DTD SVG 1.1//EN" "http://www.w3.org/Graphics/SVG/1.1/DTD/svg11.dtd">
<svg version="1.1" id="Layer_1" xmlns="http://www.w3.org/2000/svg" xmlns:xlink="http://www.w3.org/1999/xlink" x="0px" y="0px"
	 width="1400px" height="1050px" viewBox="0 0 1400 1050" enable-background="new 0 0 1400 1050" xml:space="preserve">
<g id="Layer_1_1_">
	<path fill="none" stroke="#000000" stroke-miterlimit="10" d="M90.174,620.545L286.24,280.951 M90.174,620.545L286.24,960.14
		 M286.24,280.951h63.973 M286.24,960.14h63.973 M180.376,620.545l166.769-288.853 M347.146,909.398l-166.77-288.854
		 M347.146,331.692h54.415 M347.146,909.398h54.415 M350.212,280.951l51.044,51.044 M401.257,909.097l-51.044,51.044"/>
	<path fill="none" stroke="#000000" stroke-miterlimit="10" d="M1111.761,279.281l196.064,339.594 M1307.825,618.875
		L1111.761,958.47 M1047.787,279.281h63.974 M1047.787,958.47h63.974 M1050.854,330.021l166.771,288.854 M1217.623,618.875
		l-166.77,288.854 M996.438,330.021h54.416 M996.438,907.729h54.416 M1047.787,279.281l-51.045,51.044 M996.742,907.425
		l51.045,51.045"/>
	<path fill="none" stroke="#000000" stroke-miterlimit="10" d="M477.597,618.949h504.409 M982.006,618.949l60.473-84.344
		 M391.148,770.036l86.449-151.089"/>
	<path fill="none" stroke="#000000" stroke-miterlimit="10" d="M573.153,810.296l252.205-436.831 M825.357,373.465l-42.808-94.542
		 M660.775,960.707l-87.623-150.411"/>
	<path fill="none" stroke="#000000" stroke-miterlimit="10" d="M801.979,823.793L551.716,388.904 M976.05,823.114l-174.071,0.677
		 M551.716,388.904H441.489"/>
	<path fill="none" stroke="#000000" stroke-miterlimit="10" d="M416.079,620.134h504.41 M355.609,535.79l60.47,84.341
		 M920.489,620.134l86.446,151.087"/>
	<path fill="none" stroke="#000000" stroke-miterlimit="10" d="M572.729,375.835l252.204,436.83 M615.535,281.293l-42.808,94.542
		 M824.933,812.665l-87.622,150.411"/>
	<path fill="none" stroke="#000000" stroke-miterlimit="10" d="M848.312,389.332L597.828,823.181 M959.143,388.453l-110.83,0.879
		 M597.828,823.181H422.036"/>
</g>
<g id="Layer_2">
	<path fill="none" stroke="#000000" stroke-miterlimit="10" d="M441.382,822.271l196.065-336.615 M637.447,485.656h154.619
		 M792.066,485.656l166.97,336.615 M959.036,822.271H441.382 M751.376,537.616l-51.298-88.852l-51.297,88.852H751.376z"/>
	<path fill="none" stroke="#000000" stroke-miterlimit="10" d="M863.079,545.31l88.851,51.299l-88.851,51.298V545.31z
		 M830.072,686.889L465.287,899.363 M830.072,519.33v167.56 M830.072,519.33L465.287,338.387 M465.287,899.363V338.387"/>
	<path fill="none" stroke="#000000" stroke-miterlimit="10" d="M537.552,647.905l-88.851-51.298l88.851-51.299V647.905z
		 M935.345,899.363L570.559,686.889 M570.559,686.889V519.33 M935.345,338.387L570.559,519.33 M935.345,338.387v560.978"/>
	<path fill="none" stroke="#000000" stroke-miterlimit="10" d="M637.447,726.145L441.382,389.531 M792.066,726.145H637.447
		 M959.036,389.531l-166.97,336.613 M441.382,389.531h517.654 M648.781,674.185l51.297,88.853l51.298-88.853H648.781z"/>
</g>
</svg>
