<?xml version="1.0" encoding="utf-8"?>
<!-- Generator: Adobe Illustrator 16.0.0, SVG Export Plug-In . SVG Version: 6.00 Build 0)  -->
<!DOCTYPE svg PUBLIC "-//W3C//DTD SVG 1.1//EN" "http://www.w3.org/Graphics/SVG/1.1/DTD/svg11.dtd">
<svg version="1.1" id="Layer_2" xmlns="http://www.w3.org/2000/svg" xmlns:xlink="http://www.w3.org/1999/xlink" x="0px" y="0px"
	 width="1024px" height="768px" viewBox="0 0 1024 768" enable-background="new 0 0 1024 768" xml:space="preserve">
<path fill="none" stroke="#B20000" stroke-miterlimit="10" d="M319.279,129.904l9.5,93 M328.779,222.904l182.746,161.094
	 M319.279,129.904L512.041,65.08 M345.627,137.904l7.593,74.338 M395.189,123.904l14.028,137.338 M353.779,211.904L511.569,351
	 M346.279,137.904L511.5,82.341 M271.539,305.582l70.76-70.76 M390.554,276.79l-51.266,51.266 M366.855,336.384l43.102-43.102
	 M445.853,325.297l-27.573,27.573 M430.178,359.405l25.376-25.376"/>
<path fill="none" stroke="#B20000" stroke-miterlimit="10" d="M211.38,489.257l91.384,19.704 M302.764,508.961L512.444,384.94
	 M211.38,489.257l-2.085-203.359 M227.13,466.671l73.047,15.75 M229.131,415.208l134.951,29.099 M300.027,481.785l181.048-107.084
	 M227.332,466.051l-1.788-174.304 M363.707,588.949l-45.431-89.163 M373.103,466.86l32.914,64.599 M422.456,507.815l-27.673-54.312
	 M436.323,429.258l17.703,34.745 M463.918,454.705l-16.293-31.975"/>
<path fill="none" stroke="#B20000" stroke-miterlimit="10" d="M517.827,702.721l46.979-80.822 M564.807,621.898L511.65,384.156
	 M517.827,702.721l-194.05-60.858 M501.214,680.763l37.552-64.605 M452.888,662.956l69.377-119.354 M538.115,616.104
	l-45.896-205.277 M500.687,680.379l-166.325-52.162 M659.712,588.656l-98.838,15.654 M546.502,541.992l71.608-11.341
	 M600.704,507.711l-60.205,9.534 M530.276,470.246l38.515-6.1 M563.005,451.865l-35.444,5.615"/>
<path fill="none" stroke="#B20000" stroke-miterlimit="10" d="M817.077,476.479l-62.35-69.655 M754.728,406.824l-242.532-22.912
	 M817.077,476.479L699.232,642.226 M791.061,485.494l-49.84-55.678 M759.191,525.953L667.117,423.09 M740.968,430.418
	l-209.413-19.783 M790.532,485.878L689.526,627.943 M752.44,306.292l-15.654,98.837 M673.076,399.541l11.343-71.608
	 M657.222,337.397l-9.536,60.205 M599.827,392.801l6.101-38.514 M592.46,355.995l-5.612,35.445"/>
<path fill="none" stroke="#B20000" stroke-miterlimit="10" d="M695.386,122.334l-85.513,37.773 M609.873,160.107l-96.737,223.583
	 M695.386,122.334l121.218,163.295 M695.92,149.862l-68.354,30.196 M724.551,192.675l-126.282,55.781 M628.06,180.484
	l-83.527,193.05 M696.122,150.483l103.899,139.963 M513.554,131.216l89.163,45.431 M577.714,235.512l-64.598-32.916
	 M513.713,231.387l54.312,27.674 M548.67,303.093l-34.745-17.704 M511.388,298.726l31.976,16.291"/>
<path fill="none" stroke="#B20000" stroke-miterlimit="10" d="M319.279,129.904l9.5,93 M328.779,222.904l182.746,161.094
	 M319.279,129.904L512.041,65.08 M345.627,137.904l7.593,74.338 M395.189,123.904l14.028,137.338 M353.779,211.904L511.569,351
	 M346.279,137.904L511.5,82.341 M271.539,305.582l70.76-70.76 M390.554,276.79l-51.266,51.266 M366.855,336.384l43.102-43.102
	 M445.853,325.297l-27.573,27.573 M430.178,359.405l25.376-25.376 M211.38,489.257l91.384,19.704 M302.764,508.961L512.444,384.94
	 M211.38,489.257l-2.085-203.359 M300.177,482.421l-73.047-15.75 M229.131,415.208l134.951,29.099 M300.027,481.785l181.048-107.084
	 M227.332,466.051l-1.788-174.304 M363.707,588.949l-45.431-89.163 M373.103,466.86l32.914,64.599 M422.456,507.815l-27.673-54.312
	 M454.026,464.003l-17.703-34.745 M463.918,454.705l-16.293-31.975 M517.827,702.721l46.979-80.822 M564.807,621.898L511.65,384.156
	 M517.827,702.721l-194.05-60.858 M501.214,680.763l37.552-64.605 M452.888,662.956l69.377-119.354 M538.115,616.104
	l-45.896-205.277 M500.687,680.379l-166.325-52.162 M659.712,588.656l-98.838,15.654 M546.502,541.992l71.608-11.341
	 M600.704,507.711l-60.205,9.534 M530.276,470.246l38.515-6.1 M563.005,451.865l-35.444,5.615 M817.077,476.479l-62.35-69.655
	 M754.728,406.824l-242.532-22.912 M817.077,476.479L699.232,642.226 M791.061,485.494l-49.84-55.678 M759.191,525.953
	L667.117,423.09 M740.968,430.418l-209.413-19.783 M790.532,485.878L689.526,627.943 M752.44,306.292l-15.654,98.837
	 M673.076,399.541l11.343-71.608 M657.222,337.397l-9.536,60.205 M599.827,392.801l6.101-38.514 M586.848,391.439l5.612-35.445
	 M695.386,122.334l-85.513,37.773 M609.873,160.107l-96.737,223.583 M695.386,122.334l121.218,163.295 M627.565,180.058
	l68.354-30.196 M724.551,192.675l-126.282,55.781 M628.06,180.484l-83.527,193.05 M696.122,150.483l103.899,139.963
	 M513.554,131.216l89.163,45.431 M513.116,202.596l64.598,32.916 M513.713,231.387l54.312,27.674 M548.67,303.093l-34.745-17.704
	 M543.363,315.017l-31.976-16.291"/>
<path fill="none" stroke="#B20000" stroke-miterlimit="10" d="M26.831,226.522L511.5,19 M26.831,226.522L252.903,739.93
	 M736.822,694.129L252.903,739.93 M736.822,694.129L977.45,232.604 M977.45,232.604L511.5,19"/>
<path fill="none" stroke="#B20000" stroke-miterlimit="10" d="M511.5-120L153.298,266.462 M153.298,266.462l80.464,501.091
	 M774.706,746.939l-540.944,20.614 M912.572,253.684L774.706,746.939 M511.5-120l401.072,373.684"/>
<path fill="none" stroke="#B20000" stroke-miterlimit="10" d="M512-94L0.352,217.918 M0.352,217.918L291.104,687.35 M787.6,764.018
	L291.104,687.35 M787.6,764.018l85.643-497.555 M873.242,266.462L512-94"/>
</svg>
