<?xml version="1.0" encoding="utf-8"?>
<!-- Generator: Adobe Illustrator 16.0.0, SVG Export Plug-In . SVG Version: 6.00 Build 0)  -->
<!DOCTYPE svg PUBLIC "-//W3C//DTD SVG 1.1//EN" "http://www.w3.org/Graphics/SVG/1.1/DTD/svg11.dtd">
<svg version="1.1" id="Layer_3" xmlns="http://www.w3.org/2000/svg" xmlns:xlink="http://www.w3.org/1999/xlink" x="0px" y="0px"
	 width="1400px" height="1050px" viewBox="0 0 1400 1050" enable-background="new 0 0 1400 1050" xml:space="preserve">
<path fill="none" stroke="#000000" stroke-miterlimit="10" d="M624.01,620.635l37.997-65.812 M662.005,687.44l-37.997-66.809
	 M662.005,687.44h75.99 M775.991,620.635l-37.996,66.809 M737.995,554.822l37.996,65.812 M662.005,554.822h75.99 M658.208,548.192
	l-41.797,72.393 M658.206,694.071l-41.797-73.489 M658.206,694.071h83.589 M783.59,620.585l-41.795,73.489 M741.795,548.191
	l41.795,72.393 M658.206,548.191h83.589 M608.052,620.53l45.977-79.632 M654.027,701.365l-45.977-80.839 M654.027,701.365h91.948
	 M791.949,620.53l-45.975,80.838 M745.975,540.897l45.975,79.632 M654.027,540.897h91.948 M598.858,620.469l50.574-87.595
	 M598.856,620.466l50.574,88.923 M649.43,709.388h101.142 M750.573,709.391l50.572-88.922 M750.573,532.874l50.572,87.595
	 M649.43,532.874h101.142 M588.744,620.403l55.632-96.354 M644.374,718.214l-55.632-97.814 M644.374,718.214h111.255
	 M811.26,620.403l-55.631,97.814 M755.629,524.048l55.631,96.354 M644.374,524.048h111.255 M577.619,620.33l61.194-105.99
	 M638.811,727.922l-61.195-107.596 M638.811,727.922h122.38 M822.387,620.33l-61.195,107.596 M822.387,620.329l-61.195-105.99
	 M638.811,514.339h122.38 M565.381,620.25l67.314-116.59 M632.693,738.6l-67.315-118.355 M632.693,738.6h134.618 M767.311,738.604
	l67.314-118.354 M767.311,503.659l67.314,116.59 M632.693,503.659h134.618 M551.919,620.161l74.046-128.248 M551.916,620.156
	l74.047,130.191 M625.963,750.347h148.079 M848.088,620.161l-74.047,130.19 M774.041,491.911l74.047,128.249 M625.963,491.911
	h148.079 M537.111,620.063l81.45-141.072 M618.559,763.268l-81.452-143.21 M618.559,763.268h162.886 M862.897,620.063
	l-81.451,143.21 M862.897,620.062l-81.451-141.074 M618.559,478.988h162.886 M520.822,619.956l89.596-155.18 M610.416,777.482
	l-89.598-157.531 M610.416,777.482H789.59 M879.186,619.956L789.59,777.487 M879.186,619.955L789.59,464.773 M610.416,464.773
	H789.59 M502.904,619.838L601.46,449.14 M502.9,619.833l98.558,173.284 M601.458,793.117h197.091 M897.104,619.838l-98.555,173.285
	 M798.549,449.137l98.555,170.699 M601.458,449.137h197.091 M483.195,619.708l108.411-187.767 M483.19,619.703l108.414,190.612
	 M591.604,810.315h216.8 M916.815,619.708l-108.41,190.614 M808.405,431.937l108.41,187.77 M591.604,431.937h216.8 M461.514,619.565
	l119.253-206.543 M580.765,829.233L461.51,619.559 M580.765,829.233h238.479 M938.496,619.565L819.244,829.241 M819.244,413.017
	l119.252,206.547 M580.765,413.017h238.479 M437.666,619.408l131.179-227.197 M568.843,850.043L437.661,619.402 M568.843,850.043
	h262.326 M962.346,619.408L831.168,850.052 M831.168,392.206l131.178,227.201 M568.843,392.206h262.326 M411.432,619.235
	l144.297-249.917 M555.727,872.933l-144.3-253.704 M555.727,872.933h288.558 M988.58,619.235L844.285,872.943 M988.58,619.234
	L844.285,369.313 M555.727,369.313h288.558 M382.576,619.046l158.727-274.909 M541.301,898.113L382.57,619.039 M541.301,898.113
	h317.415 M1017.438,619.046L858.715,898.124 M1017.438,619.044L858.715,344.131 M541.301,344.131h317.415 M350.834,618.837
	l174.6-302.4 M350.827,618.829L525.43,925.811 M525.43,925.811h349.156 M1049.182,618.837L874.586,925.823 M874.586,316.43
	l174.596,302.404 M525.43,316.43h349.156 M315.918,618.607l192.06-332.641 M315.91,618.598l192.063,337.681 M507.973,956.279
	h384.072 M1084.1,618.607L892.045,956.292 M1084.1,618.605L892.045,285.96 M507.973,285.96h384.072 M277.51,618.354L488.775,252.45
	 M488.771,989.794L277.501,618.344 M488.771,989.794H911.25 M1122.51,618.354L911.25,989.807 M1122.51,618.352l-211.26-365.91
	 M488.771,252.442H911.25 M235.26,618.076l232.393-402.494 M235.251,618.065l232.397,408.595 M467.648,1026.66h464.727
	 M1164.762,618.076l-232.387,408.599 M932.375,215.573l232.387,402.501 M467.648,215.573h464.727 M188.787,617.77l255.632-442.744
	 M444.413,1067.213L188.776,617.759 M444.413,1067.213h511.201 M1211.239,617.77l-255.625,449.458 M955.614,175.016l255.625,442.752
	 M444.413,175.016h511.201 M137.666,617.434l281.195-487.02 M418.854,1111.82l-281.2-494.399 M418.854,1111.82h562.322
	 M1262.364,617.434l-281.188,494.403 M1262.364,617.431L981.176,130.404 M418.854,130.404h562.322 M81.432,617.064L390.748,81.343
	 M81.42,617.05l309.32,543.839 M390.74,1160.888h618.553 M1318.6,617.064l-309.307,543.844 M1009.293,81.331l309.307,535.73
	 M390.74,81.331h618.553 M19.576,616.657L359.823,27.363 M359.814,1214.864L19.562,616.641 M359.814,1214.864h680.409
	 M1380.459,616.657l-340.236,598.229 M1040.223,27.35l340.236,589.304 M359.814,27.35h680.409 M325.805-32.014L-48.466,616.21
	 M325.796,1274.237L-48.482,616.192 M325.796,1274.237h748.451 M1448.506,616.21l-374.26,658.051 M1074.246-32.029l374.26,648.234
	 M325.796-32.029h748.451 M-123.312,615.718L288.386-97.328 M288.376,1339.548l-411.706-723.85 M288.376,1339.548h823.296
	 M1523.358,615.718l-411.686,723.855 M1523.358,615.713L1111.672-97.345 M288.376-97.345h823.296 M-205.643,615.176l452.869-784.351
	 M247.214,1411.389l-452.876-796.235 M247.214,1411.389h905.626 M1605.694,615.176l-452.854,796.241 M1152.84-169.193
	l452.854,784.363 M247.214-169.193h905.626 M-296.207,614.58l498.155-862.786 M201.935,1490.415l-498.164-875.858 M201.935,1490.415
	h996.19 M1696.264,614.58l-498.139,875.865 M1198.125-248.226l498.139,862.8 M201.935-248.226h996.19"/>
</svg>
