<?xml version="1.0" encoding="utf-8"?>
<!-- Generator: Adobe Illustrator 16.0.0, SVG Export Plug-In . SVG Version: 6.00 Build 0)  -->
<!DOCTYPE svg PUBLIC "-//W3C//DTD SVG 1.1//EN" "http://www.w3.org/Graphics/SVG/1.1/DTD/svg11.dtd">
<svg version="1.1" id="Layer_3" xmlns="http://www.w3.org/2000/svg" xmlns:xlink="http://www.w3.org/1999/xlink" x="0px" y="0px"
	 width="1400px" height="1050px" viewBox="0 0 1400 1050" enable-background="new 0 0 1400 1050" xml:space="preserve">
<path fill="none" stroke="#000000" stroke-miterlimit="10" d="M336.002,618.743l182-315.232 M518.001,938.753l-181.999-320.01
	 M518.001,938.753h363.997 M1063.998,618.743l-182,320.01 M881.998,303.511l182,315.231 M518.001,303.511h363.997"/>
<path fill="none" stroke="#000000" stroke-miterlimit="10" d="M372.099,618.979l163.951-283.97 M536.05,907.255L372.099,618.979
	 M536.05,907.255h327.9 M1027.901,618.979L863.95,907.255 M863.95,335.009l163.951,283.972 M536.05,335.009h327.9"/>
<path fill="none" stroke="#000000" stroke-miterlimit="10" d="M404.617,619.194l147.69-255.812 M552.308,878.882L404.616,619.193
	 M552.308,878.882h295.385 M995.384,619.194L847.692,878.882 M847.692,363.382l147.69,255.812 M552.308,363.382h295.385"/>
<path fill="none" stroke="#000000" stroke-miterlimit="10" d="M433.908,619.386l133.045-230.442 M566.954,853.321L433.908,619.386
	 M566.954,853.321h266.091 M966.092,619.386L833.045,853.321 M833.045,388.941l133.046,230.442 M566.954,388.941h266.091"/>
<path fill="none" stroke="#000000" stroke-miterlimit="10" d="M460.296,619.559l119.854-207.592 M580.147,830.295L460.295,619.559
	 M580.147,830.295H819.85 M939.705,619.559L819.85,830.295 M819.854,411.968L939.705,619.56 M580.147,411.968H819.85"/>
<path fill="none" stroke="#000000" stroke-miterlimit="10" d="M484.066,619.715l107.968-187.006 M592.034,809.554L484.066,619.715
	 M592.034,809.554h215.933 M915.933,619.715L807.965,809.554 M807.967,432.709l107.967,187.006 M592.034,432.709h215.933"/>
<path fill="none" stroke="#000000" stroke-miterlimit="10" d="M505.48,619.855l97.26-168.463 M602.74,790.868l-97.26-171.013
	 M602.74,790.868h194.52 M894.52,619.855l-97.26,171.013 M797.26,451.395l97.26,168.461 M602.74,451.395h194.52"/>
<path fill="none" stroke="#000000" stroke-miterlimit="10" d="M524.771,619.982l87.615-151.756 M612.386,774.036l-87.615-154.054
	 M612.386,774.036h175.23 M875.229,619.982l-87.612,154.054 M787.616,468.227l87.613,151.756 M612.386,468.227h175.23"/>
<path fill="none" stroke="#000000" stroke-miterlimit="10" d="M542.147,620.097l78.927-136.707 M621.075,758.873l-78.926-138.776
	 M621.075,758.873h157.853 M857.853,620.097l-78.925,138.774 M778.928,483.39l78.925,136.707 M621.075,483.39h157.853"/>
<path fill="none" stroke="#000000" stroke-miterlimit="10" d="M557.801,620.199l71.1-123.151 M628.901,745.214l-71.1-125.017
	 M628.901,745.214h142.197 M842.198,620.199l-71.101,125.015 M771.099,497.05l71.101,123.15 M628.901,497.05h142.197"/>
<path fill="none" stroke="#000000" stroke-miterlimit="10" d="M571.902,620.292l64.05-110.938 M635.95,732.909L571.902,620.29
	 M635.95,732.909h128.099 M828.097,620.292l-64.05,112.618 M764.05,509.354l64.048,110.938 M635.95,509.354h128.099"/>
<path fill="none" stroke="#000000" stroke-miterlimit="10" d="M584.604,620.375l57.698-99.936 M642.303,721.824l-57.698-101.449
	 M642.303,721.824h115.396 M815.396,620.375l-57.696,101.449 M757.698,520.439l57.697,99.936 M642.303,520.439h115.396"/>
<path fill="none" stroke="#000000" stroke-miterlimit="10" d="M596.049,620.45l51.977-90.026 M648.024,711.839l-51.977-91.388
	 M648.024,711.839h103.951 M803.952,620.45l-51.976,91.387 M751.977,530.424l51.976,90.026 M648.024,530.424h103.951"/>
<path fill="none" stroke="#000000" stroke-miterlimit="10" d="M606.355,620.518l46.822-81.099 M653.178,702.843l-46.822-82.325
	 M653.178,702.843h93.645 M793.645,620.518l-46.822,82.325 M746.822,539.419l46.82,81.099 M653.178,539.419h93.645"/>
<path fill="none" stroke="#000000" stroke-miterlimit="10" d="M615.643,620.578l42.18-73.057 M657.821,694.739l-42.18-74.161
	 M657.821,694.739h84.355 M784.355,620.578l-42.179,74.161 M742.179,547.521l42.18,73.057 M657.821,547.521h84.355"/>
<path fill="none" stroke="#000000" stroke-miterlimit="10" d="M624.01,620.634l37.997-65.811 M662.005,687.44l-37.997-66.809
	 M662.005,687.44h75.991 M775.992,620.634l-37.996,66.809 M737.996,554.822l37.996,65.811 M662.005,554.822h75.991"/>
</svg>
